<svg width="83" height="106" viewBox="0 0 83 106" fill="none" xmlns="http://www.w3.org/2000/svg">
<path d="M46.4616 47.0968H30.2145C26.1528 47.0968 23.6221 44.5496 23.9305 40.7658C24.3558 35.4811 27.2373 33.6949 35.3396 33.6949H61.1456L61.4008 30.524H35.5947C32.6601 30.524 27.6733 30.524 24.2814 33.2826L24.8343 26.3914C27.5669 25.3767 30.7143 25.1231 33.936 25.1231H62.3152C65.5051 25.1231 68.3015 22.5442 68.5567 19.3733L68.6098 18.7497C68.865 15.5789 66.4833 13 63.2934 13H30.0975C26.0677 13 21.9315 14.0358 18.21 16.192L18.3376 14.5854H15.1477L14.8287 18.5701C12.7447 20.3246 10.8733 22.5019 9.3209 25.1231L10.1715 14.5854H6.98166L0.0171222 100.715C-0.216801 103.632 1.97357 106 4.90825 106H5.63129C5.63129 106 5.72698 105.989 5.76951 105.989C5.86521 105.989 5.95027 106 6.04597 106H43.0909C58.4235 106 70.5344 93.8346 71.8848 77.0716C73.2352 60.3086 62.5916 47.0863 46.4616 47.0863V47.0968ZM19.5923 51.7685C16.5938 48.9148 16.2429 44.613 16.3173 39.6454L16.3599 39.1487C16.9447 33.6631 18.8373 30.2809 21.4955 28.2199L19.5923 51.7685ZM4.13205 89.3215H9.10824L8.69356 94.5005H6.99229C5.78015 94.5005 4.62116 94.8704 3.64294 95.5152L4.14268 89.3215H4.13205ZM3.93002 100.25C4.04699 98.834 5.30167 97.6713 6.7371 97.6713H8.43837L8.19381 100.705C8.10875 101.804 7.18369 102.692 6.10976 102.797C4.79129 102.692 3.82369 101.593 3.93002 100.24V100.25ZM11.3837 100.715L11.6282 97.6819H15.8814L15.4667 102.829H10.7563C11.0966 102.184 11.3199 101.466 11.3837 100.715ZM11.8834 94.5111L12.2981 89.3321H16.5513L16.1366 94.5111H11.8834ZM16.8171 86.1613H12.5639L14.3609 63.9339C15.5943 64.6737 16.9872 65.2762 18.4652 65.8046L16.8171 86.1718V86.1613ZM21.5806 66.7136C24.6216 67.4218 28.0667 67.7917 31.9477 67.7917H42.6762C48.939 67.7917 52.6818 71.4381 52.2352 77.0822C51.5547 85.506 42.6443 86.1613 39.9223 86.1613H20.0176L21.5912 66.7136H21.5806ZM19.7518 89.3321H39.6565C48.6307 89.3321 54.819 84.523 55.4144 77.0822C56.0099 69.6413 50.8742 64.6209 42.9208 64.6209H32.1922C28.2262 64.6209 24.7917 64.2298 21.8358 63.4688L22.3568 57.0743C24.8343 57.9727 27.9603 58.5223 31.9158 58.6069L42.3466 58.6703C55.1593 58.6703 61.6878 65.0753 60.7521 76.7122C59.8165 88.3491 52.7137 94.5111 40.7198 94.5111H19.3264L19.7411 89.3321H19.7518ZM18.731 62.4753C17.2105 61.8623 15.8495 61.1118 14.6586 60.2134L15.3604 51.5888C16.2748 53.1214 17.5401 54.4848 19.2945 55.584L18.7416 62.4647L18.731 62.4753ZM63.0382 16.1708C64.463 16.1708 65.5369 17.3229 65.42 18.7497L65.3668 19.3733C65.2499 20.7896 63.9952 21.9523 62.5704 21.9523H34.1912C32.0965 21.9523 28.6302 21.9523 25.1001 23.0303L25.6211 16.583C26.9502 16.3188 28.3538 16.1708 29.8317 16.1708H63.0276H63.0382ZM22.3674 17.5448L21.8145 24.4044C20.1664 25.2922 18.6034 26.5182 17.253 28.1776L17.9123 20.0392C19.252 19.0245 20.7406 18.1896 22.3674 17.5448ZM14.4566 23.3474L13.17 39.1909C13.1594 39.2966 13.1381 39.3918 13.1381 39.4974V39.5609V39.6243C13.1381 39.6666 13.1381 39.7088 13.1381 39.7511L11.7239 57.2751C8.68292 53.2588 7.53457 47.5407 8.15128 39.9202C8.64039 33.8851 10.7244 27.8288 14.4672 23.3474H14.4566ZM11.3518 61.6614L9.36343 86.1507H4.38724L6.88596 55.3727C7.95989 57.8459 9.44849 59.9386 11.3518 61.6614ZM43.3568 102.829H18.6566L19.0712 97.6819H40.4646C54.1066 97.6819 62.8894 89.8394 63.942 76.7122C65.0159 63.4265 57.0306 55.4995 42.6125 55.4995L32.2135 55.4361C28.0241 55.3515 24.9193 54.7491 22.6226 53.7344L23.1117 47.731C24.7386 49.327 27.0991 50.2571 29.9593 50.2571H46.2064C60.4863 50.2571 69.939 61.5346 68.6949 77.0716C67.4509 92.6086 56.8392 102.829 43.3568 102.829Z" fill="#231815"/>
<path d="M77.5 11C80.5376 11 83 8.53757 83 5.5C83 2.46243 80.5376 0 77.5 0C74.4624 0 72 2.46243 72 5.5C72 8.53757 74.4624 11 77.5 11Z" fill="#231815"/>
<path d="M76.3579 5.34622C76.9068 5.34622 77.324 5.78534 77.324 6.38913C77.324 6.95999 76.9508 7.39911 76.4128 7.39911H74.8979V6.78434H76.2372C76.5007 6.78434 76.7202 6.66358 76.7202 6.38913C76.7202 6.13663 76.5336 5.98294 76.2811 5.98294H75.8859C75.2272 5.98294 74.7881 5.69751 74.7881 5.01687C74.7881 4.52286 75.1284 4.08374 75.6553 4.08374H77.0276V4.73144H75.9078C75.6553 4.73144 75.4468 4.77536 75.4468 5.04981C75.4468 5.21448 75.5675 5.34622 75.7542 5.34622H76.347H76.3579Z" fill="white"/>
<path d="M78.4107 4.69851H77.5654V4.08374H79.8598V4.69851H79.0036V7.39911H78.4107V4.69851Z" fill="white"/>
</svg>
