<svg width="129" height="180" viewBox="0 0 129 180" fill="none" xmlns="http://www.w3.org/2000/svg">
<mask id="mask0_43_9546" style="mask-type:alpha" maskUnits="userSpaceOnUse" x="0" y="0" width="129" height="128">
<circle cx="64.5" cy="63.75" r="63.75" fill="#D9D9D9"/>
</mask>
<g mask="url(#mask0_43_9546)">
<g clip-path="url(#clip0_43_9546)">
<path d="M63.1674 70.3413L83.3608 83.7931V111.959L62.8545 99.8346L63.1674 70.3413Z" fill="#3E4064"/>
<path d="M63.0856 70.1787L34.1489 77.1739V107.499L62.7727 99.672L63.0856 70.1787Z" fill="#070810"/>
<path d="M63.0856 70.1789L83.2789 83.6307L105.3 78.7144L71.4065 61.2002L23.7002 70.9303L34.1489 77.1741L63.0856 70.1789Z" fill="url(#paint0_linear_43_9546)"/>
<path d="M83.2789 111.797L55.3827 120.345L34.1489 107.499L62.7727 99.6724L83.2789 111.797Z" fill="url(#paint1_linear_43_9546)"/>
<path d="M34.1489 77.174L23.7002 70.9302V120.289L55.3827 142.8V120.344L34.1489 107.499V77.174Z" fill="#3E4064"/>
<path d="M83.3611 83.7929V111.959L55.4648 120.507V142.962L105.382 128.236V78.8765L83.3611 83.7929Z" fill="#070810"/>
</g>
<g clip-path="url(#clip1_43_9546)">
<path d="M56.8502 56.3304L46.6499 43.9011L52.0339 25.855L62.6797 37.4905L56.8502 56.3304Z" fill="#3E4064"/>
<path d="M56.8501 56.3306L75.6515 57.0591L81.4491 37.628L62.6796 37.4907L56.8501 56.3306Z" fill="url(#paint2_linear_43_9546)"/>
<path d="M52.0337 25.855L70.8367 25.5L81.449 37.6279L62.6795 37.4905L52.0337 25.855Z" fill="url(#paint3_linear_43_9546)"/>
</g>
</g>
<rect x="6.25" y="153.5" width="38" height="26" rx="13" fill="#5C8AFF"/>
<path d="M21.2578 172.5L21.2422 170.797L25.3047 167.062C26.3594 166.055 26.9297 165.43 26.9297 164.531C26.9297 163.523 26.1719 162.898 25.1328 162.906C24.0703 162.898 23.375 163.57 23.3828 164.656H21.1484C21.1406 162.445 22.7812 161.031 25.1641 161.031C27.5859 161.031 29.1953 162.414 29.1953 164.375C29.1953 165.664 28.5703 166.719 26.2422 168.828L24.5234 170.5V170.562H29.3516V172.5H21.2578Z" fill="white"/>
<path d="M60.7656 165.125C60.5781 163.875 59.6172 163.117 58.2969 163.109C56.5391 163.117 55.375 164.461 55.375 166.844C55.375 169.281 56.5547 170.57 58.2812 170.578C59.5703 170.57 60.5391 169.867 60.7656 168.641L63.1406 168.656C62.8828 170.75 61.125 172.656 58.25 172.656C55.2266 172.656 52.9844 170.523 52.9844 166.844C52.9844 163.148 55.2656 161.031 58.25 161.031C60.8594 161.031 62.8281 162.523 63.1406 165.125H60.7656ZM67.0469 161.188V172.5H64.7344V161.188H67.0469ZM68.4375 170.125C68.4453 168.234 69.9609 167.617 71.5938 167.516C72.2031 167.477 73.3438 167.422 73.7031 167.406V166.719C73.6953 166.008 73.2109 165.602 72.3438 165.594C71.5547 165.602 71.0625 165.953 70.9375 166.531H68.7344C68.875 165.062 70.1562 163.906 72.4062 163.906C74.2578 163.906 76.0078 164.734 76 166.781V172.5H73.8125V171.328H73.75C73.3359 172.109 72.5234 172.664 71.2656 172.656C69.6406 172.664 68.4453 171.805 68.4375 170.125ZM70.6562 170.062C70.6562 170.711 71.1797 171.055 71.9219 171.062C72.9766 171.055 73.7109 170.367 73.7031 169.469V168.852C73.3516 168.867 72.3594 168.922 71.9688 168.953C71.1641 169.023 70.6562 169.406 70.6562 170.062ZM77.7656 172.5V164.016H80.0781V172.5H77.7656ZM77.6562 161.734C77.6562 161.078 78.2266 160.555 78.9219 160.547C79.6094 160.555 80.1797 161.078 80.1719 161.734C80.1797 162.375 79.6094 162.906 78.9219 162.906C78.2266 162.906 77.6562 162.375 77.6562 161.734ZM81.875 172.5V164.016H84.0781V165.5H84.1719C84.5312 164.508 85.3906 163.906 86.5312 163.906C87.6953 163.906 88.5625 164.523 88.8438 165.5H88.9219C89.2734 164.539 90.2422 163.906 91.4844 163.906C93.0547 163.906 94.1562 164.945 94.1562 166.797V172.5H91.8438V167.25C91.8516 166.281 91.2734 165.812 90.5156 165.812C89.6484 165.812 89.1328 166.414 89.1406 167.312V172.5H86.8906V167.188C86.8984 166.352 86.3672 165.812 85.5781 165.812C84.7891 165.812 84.1797 166.445 84.1875 167.406V172.5H81.875ZM99.6719 172.5V161.188H104.172C106.664 161.188 107.93 162.391 107.922 164.094C107.93 165.422 107.055 166.258 105.891 166.516V166.625C107.164 166.688 108.367 167.703 108.375 169.375C108.367 171.172 107.023 172.5 104.469 172.5H99.6719ZM102.016 170.562H104C105.359 170.57 105.945 170.008 105.938 169.156C105.945 168.203 105.219 167.531 104.062 167.531H102.016V170.562ZM102.016 165.922H103.828C104.812 165.93 105.555 165.375 105.547 164.469C105.555 163.648 104.945 163.094 103.875 163.094H102.016V165.922ZM109.859 172.5V161.188H112.203V170.562H117.078V172.5H109.859ZM118.594 172.5V161.188H120.938V166.203H121.094L125.203 161.188H128.031L123.812 166.25L128.078 172.5H125.266L122.125 167.828L120.938 169.266V172.5H118.594Z" fill="#5C8AFF"/>
<defs>
<linearGradient id="paint0_linear_43_9546" x1="23.6046" y1="72.4155" x2="103.337" y2="75.7637" gradientUnits="userSpaceOnUse">
<stop stop-color="#3A9DD5"/>
<stop offset="1" stop-color="#FFC4D9"/>
</linearGradient>
<linearGradient id="paint1_linear_43_9546" x1="34.0914" y1="110.009" x2="82.1456" y2="111.327" gradientUnits="userSpaceOnUse">
<stop stop-color="#3A9DD5"/>
<stop offset="1" stop-color="#FFC4D9"/>
</linearGradient>
<linearGradient id="paint2_linear_43_9546" x1="70.095" y1="34.2084" x2="72.9322" y2="57.044" gradientUnits="userSpaceOnUse">
<stop stop-color="#3A9DD5"/>
<stop offset="1" stop-color="#FFC4D9"/>
</linearGradient>
<linearGradient id="paint3_linear_43_9546" x1="69.3413" y1="37.5575" x2="67.7158" y2="24.5411" gradientUnits="userSpaceOnUse">
<stop stop-color="#FFC4D9"/>
<stop offset="0.95856" stop-color="#3A9DD5"/>
</linearGradient>
<clipPath id="clip0_43_9546">
<rect x="23.7002" y="61.2002" width="81.6" height="81.6" rx="2" fill="white"/>
</clipPath>
<clipPath id="clip1_43_9546">
<rect width="34.7994" height="31.5589" fill="white" transform="translate(46.6499 25.5)"/>
</clipPath>
</defs>
</svg>
