<svg width="139" height="173" viewBox="0 0 139 173" fill="none" xmlns="http://www.w3.org/2000/svg">
<mask id="mask0_43_9513" style="mask-type:alpha" maskUnits="userSpaceOnUse" x="5" y="0" width="129" height="121">
<rect x="5.75" y="0.5" width="128" height="120" fill="#D9D9D9"/>
</mask>
<g mask="url(#mask0_43_9513)">
<path fill-rule="evenodd" clip-rule="evenodd" d="M87.2967 91.39C88.2161 89.6421 90.1666 88.6632 92.1343 88.832C94.2251 89.0113 96.3759 88.9023 98.5373 88.472C110.871 86.0165 118.878 74.0277 116.423 61.6943C113.967 49.3609 101.979 41.3533 89.6452 43.8088C87.2106 44.2935 84.9447 45.1496 82.8944 46.3066C81.1741 47.2774 78.9927 47.1962 77.4307 45.9869C69.4382 39.799 58.9095 36.9768 48.2178 39.1055C28.6295 43.0054 15.9115 62.0464 19.8114 81.6348C23.7113 101.223 42.7523 113.941 62.3407 110.041C73.477 107.824 82.3927 100.713 87.2967 91.39Z" fill="#5C8AFF"/>
<path fill-rule="evenodd" clip-rule="evenodd" d="M82.5704 78.065C84.5116 78.4283 86.022 80.0036 86.4408 81.9336C86.8857 83.9843 87.6238 86.0074 88.6721 87.9458C94.654 99.0075 108.47 103.125 119.532 97.1435C130.594 91.1616 134.712 77.3451 128.73 66.2835C127.549 64.0999 126.063 62.1869 124.353 60.5688C122.918 59.211 122.353 57.1026 123.048 55.2536C126.605 45.7923 126.198 34.8997 121.012 25.3106C111.512 7.74212 89.5678 1.20186 71.9993 10.7025C54.4309 20.2032 47.8906 42.147 57.3912 59.7154C62.7926 69.7035 72.2158 76.1271 82.5704 78.065Z" fill="#D4DDFA"/>
<path fill-rule="evenodd" clip-rule="evenodd" d="M82.5704 78.065C84.5116 78.4283 86.022 80.0036 86.4408 81.9336C86.8857 83.9843 87.6238 86.0074 88.6721 87.9458C94.654 99.0075 108.47 103.125 119.532 97.1435C130.594 91.1616 134.712 77.3451 128.73 66.2835C127.549 64.0999 126.063 62.1869 124.353 60.5688C122.918 59.211 122.353 57.1026 123.048 55.2536C126.605 45.7923 126.198 34.8997 121.012 25.3106C111.512 7.74212 89.5678 1.20186 71.9993 10.7025C54.4309 20.2032 47.8906 42.147 57.3912 59.7154C62.7926 69.7035 72.2158 76.1271 82.5704 78.065Z" fill="#D4DDFA"/>
<g filter="url(#filter0_d_43_9513)">
<circle cx="72.9982" cy="59.714" r="33.214" fill="url(#paint0_linear_43_9513)"/>
<path d="M89.6967 54.1857C88.0449 49.8118 83.8475 46.8711 79.2495 46.8711C76.7535 46.8711 74.3933 47.6906 72.4203 49.2452C71.7914 49.7443 71.2121 50.3109 70.6957 50.928C69.9045 51.8824 69.2756 52.9514 68.832 54.1014C68.3189 55.4335 68.0607 56.8364 68.0607 58.2696V69.7423C68.0607 69.9143 67.9283 70.0492 67.7562 70.0492H58.6793C58.5105 70.0492 58.3748 69.9109 58.3748 69.7389V51.1843C58.3748 50.8269 58.0901 50.5368 57.7392 50.5368H56.3621C56.0112 50.5368 55.7266 50.8269 55.7266 51.1843V72.103C55.7266 72.4571 56.0112 72.7471 56.3588 72.7471H70.0734C70.4242 72.7471 70.7089 72.4571 70.7089 72.103V58.2696C70.7089 56.2664 71.3975 54.3071 72.6521 52.7525C73.1387 52.1522 73.6981 51.6194 74.3171 51.1742C75.7604 50.1254 77.4685 49.569 79.2495 49.569C82.4373 49.569 85.3371 51.3597 86.8168 54.2397C87.1975 54.9715 87.4689 55.7471 87.6245 56.5565C87.737 57.1163 87.7933 57.6929 87.7933 58.2696V69.7423C87.7933 69.9109 87.6576 70.0492 87.4921 70.0492H74.1947C74.0225 70.0492 73.8636 70.1166 73.7411 70.2414C73.622 70.3662 73.5558 70.5281 73.5558 70.7034L73.569 72.1063C73.5723 72.4604 73.857 72.7471 74.2046 72.7471H89.8027C90.1536 72.7471 90.4382 72.4571 90.4382 72.0996V58.2696C90.4382 56.86 90.1867 55.4841 89.6934 54.1857H89.6967Z" fill="url(#paint1_linear_43_9513)"/>
<path d="M56.4682 46.8711H62.1548C62.5014 46.8711 62.7827 47.1502 62.7827 47.4941V48.7726C62.7827 49.1165 62.5014 49.3956 62.1548 49.3956H56.4682C56.1216 49.3956 55.8403 49.1165 55.8403 48.7726V47.4941C55.8403 47.1502 56.1216 46.8711 56.4682 46.8711Z" fill="url(#paint2_linear_43_9513)"/>
</g>
<path d="M15.3654 82.8961L32.0562 67.6157L39.1087 71.6121L36.0526 74.198L54.154 74.198L58.6205 77.019L58.6205 82.8961L60.2661 87.3626L55.7995 92.2994L58.6205 95.5905L54.154 99.5869L54.154 108.755L29.4703 108.755L19.1267 106.404L15.3654 101.938L15.3654 82.8961Z" fill="#FEEBD9"/>
<path fill-rule="evenodd" clip-rule="evenodd" d="M54.8974 85.1535C56.0369 85.1535 56.695 85.5154 57.0596 85.8743C57.442 86.2508 57.6423 86.7596 57.6423 87.2884C57.6423 87.8171 57.442 88.326 57.0596 88.7024C56.695 89.0614 56.0366 89.4233 54.8972 89.4233L49.2043 89.4233C49.1951 89.4233 49.1859 89.4234 49.1768 89.4235C49.155 89.4237 49.1334 89.4243 49.1119 89.4253C47.9753 89.4732 47.0685 90.4098 47.0685 91.5582C47.0685 92.7373 48.0246 93.6931 49.2037 93.6931L53.3962 93.6931C54.5356 93.6931 55.1937 94.0551 55.5583 94.414C55.9408 94.7905 56.141 95.2993 56.141 95.8281C56.141 96.3568 55.9408 96.8656 55.5583 97.2421C55.1937 97.601 54.5356 97.963 53.3962 97.963L49.2034 97.963C48.0243 97.963 47.0685 98.9188 47.0685 100.098C47.0685 101.275 48.0218 102.23 49.1984 102.233L49.2069 102.233L50.8332 102.233C51.9726 102.233 52.6307 102.595 52.9953 102.954C53.3778 103.33 53.578 103.839 53.578 104.368C53.578 104.896 53.3778 105.405 52.9953 105.782C52.6357 106.136 51.9904 106.493 50.8793 106.502C50.8638 106.502 50.8482 106.502 50.8326 106.502L26.4339 106.502C23.342 106.502 21.0816 105.523 19.5951 104.01C18.1024 102.49 17.1824 100.219 17.1824 97.2506L17.1824 84.0965C17.1824 83.1001 17.6002 82.1508 18.3361 81.4761L30.0863 70.7051L34.6257 70.4815L37.1091 72.344L34.97 72.344C33.7909 72.344 32.8351 73.2998 32.8351 74.4789C32.8351 75.658 33.7909 76.6138 34.97 76.6138L54.8959 76.6138C56.075 76.6138 57.0308 77.5697 57.0308 78.7487C57.0308 80.1618 56.1851 80.8837 55.2272 80.8837L49.2028 80.8837C48.0238 80.8837 47.0679 81.8395 47.0679 83.0186C47.0679 84.1921 48.0149 85.1445 49.1863 85.1534C49.1923 85.1535 49.1983 85.1535 49.2043 85.1535L54.8974 85.1535ZM59.3562 92.3396C60.0619 93.3931 60.4109 94.6163 60.4109 95.8281C60.4109 97.4342 59.7978 99.0603 58.5537 100.285C58.1227 100.709 57.631 101.071 57.0863 101.363C57.5956 102.299 57.8479 103.337 57.8479 104.368C57.8479 105.974 57.2348 107.6 55.9907 108.825C54.7287 110.067 52.9469 110.772 50.8332 110.772C50.8146 110.772 50.7961 110.772 50.7777 110.772L26.4339 110.772C22.4094 110.772 18.9762 109.473 16.5488 107.002C14.1274 104.536 12.9126 101.114 12.9126 97.2506L12.9126 84.0965C12.9126 81.9011 13.8344 79.8105 15.4508 78.3286L27.2011 67.5575C29.9781 65.0122 34.1739 64.8055 37.1876 67.0656L44.2254 72.344L54.8959 72.344C58.4331 72.344 61.3006 75.2115 61.3006 78.7487C61.3006 80.2179 60.8427 81.6471 60.0035 82.7814C60.0207 82.798 60.0379 82.8147 60.0549 82.8314C61.2991 84.0561 61.9121 85.6822 61.9121 87.2884C61.9121 88.8945 61.2991 90.5207 60.0549 91.7453C59.8372 91.9597 59.604 92.158 59.3562 92.3396Z" fill="#252423"/>
</g>
<rect x="0.75" y="146.5" width="38" height="26" rx="13" fill="#5C8AFF"/>
<path d="M21.7656 154.188V165.5H19.4062V156.422H19.3438L16.75 158.047V155.969L19.5469 154.188H21.7656Z" fill="white"/>
<path d="M53.9141 157.422C53.8203 156.523 53.1094 156 51.9609 156C50.7734 156 50.1094 156.547 50.1016 157.297C50.0938 158.117 50.9375 158.484 51.9141 158.703L52.9297 158.953C54.8672 159.398 56.3125 160.383 56.3203 162.266C56.3125 164.336 54.7031 165.664 51.9453 165.656C49.2109 165.664 47.4688 164.398 47.3984 161.969H49.6797C49.7578 163.109 50.6641 163.688 51.9141 163.688C53.1484 163.688 53.9453 163.109 53.9453 162.266C53.9453 161.492 53.2422 161.133 52.0078 160.828L50.7734 160.531C48.8672 160.062 47.6953 159.109 47.6953 157.453C47.6875 155.398 49.5 154.031 51.9766 154.031C54.4844 154.031 56.1328 155.422 56.1641 157.422H53.9141ZM62.2734 157.016V158.75H60.6797V162.891C60.6719 163.57 61.0078 163.734 61.4766 163.75C61.7109 163.75 62.1172 163.727 62.3984 163.703V165.531C62.1484 165.57 61.7344 165.617 61.1641 165.609C59.4922 165.617 58.3516 164.867 58.3672 163.219V158.75H57.1953V157.016H58.3672V154.984H60.6797V157.016H62.2734ZM63.3203 163.125C63.3281 161.234 64.8438 160.617 66.4766 160.516C67.0859 160.477 68.2266 160.422 68.5859 160.406V159.719C68.5781 159.008 68.0938 158.602 67.2266 158.594C66.4375 158.602 65.9453 158.953 65.8203 159.531H63.6172C63.7578 158.062 65.0391 156.906 67.2891 156.906C69.1406 156.906 70.8906 157.734 70.8828 159.781V165.5H68.6953V164.328H68.6328C68.2188 165.109 67.4062 165.664 66.1484 165.656C64.5234 165.664 63.3281 164.805 63.3203 163.125ZM65.5391 163.062C65.5391 163.711 66.0625 164.055 66.8047 164.062C67.8594 164.055 68.5938 163.367 68.5859 162.469V161.852C68.2344 161.867 67.2422 161.922 66.8516 161.953C66.0469 162.023 65.5391 162.406 65.5391 163.062ZM72.6484 165.5V154.188H74.9609V160.266H75.0859L77.8359 157.016H80.4922L77.3281 160.688L80.6641 165.5H77.9453L75.6094 162.047L74.9609 162.781V165.5H72.6484ZM85.0547 165.672C82.4531 165.664 80.8594 163.984 80.8672 161.297C80.8594 158.68 82.4766 156.906 84.9609 156.906C87.1875 156.906 88.9453 158.312 88.9453 161.203V161.859H83.1484C83.1484 163.141 83.9062 163.93 85.1016 163.938C85.8906 163.93 86.4531 163.586 86.6797 163.078H88.8828C88.5547 164.648 87.1484 165.664 85.0547 165.672ZM83.1484 160.406H86.7578C86.75 159.375 86.0391 158.633 85.0078 158.641C83.9453 158.633 83.1953 159.43 83.1484 160.406ZM98.9297 159.531C98.8281 158.938 98.3125 158.555 97.5391 158.547C96.7891 158.555 96.2188 158.906 96.2266 159.422C96.2188 159.805 96.5156 160.102 97.3203 160.266L98.8359 160.578C100.484 160.922 101.281 161.656 101.289 162.875C101.281 164.547 99.7812 165.664 97.5234 165.672C95.2344 165.664 93.8906 164.641 93.6953 162.984H96.0234C96.1328 163.648 96.6719 163.992 97.5234 164C98.3672 163.992 98.9297 163.656 98.9297 163.109C98.9297 162.672 98.5703 162.398 97.7734 162.234L96.3672 161.953C94.75 161.633 93.9219 160.805 93.9297 159.547C93.9219 157.922 95.3203 156.906 97.5078 156.906C99.6484 156.906 100.977 157.922 101.102 159.531H98.9297ZM107.18 157.016V158.75H105.586V162.891C105.578 163.57 105.914 163.734 106.383 163.75C106.617 163.75 107.023 163.727 107.305 163.703V165.531C107.055 165.57 106.641 165.617 106.07 165.609C104.398 165.617 103.258 164.867 103.273 163.219V158.75H102.102V157.016H103.273V154.984H105.586V157.016H107.18ZM108.867 165.5V154.188H113.367C115.859 154.188 117.125 155.391 117.117 157.094C117.125 158.422 116.25 159.258 115.086 159.516V159.625C116.359 159.688 117.562 160.703 117.57 162.375C117.562 164.172 116.219 165.5 113.664 165.5H108.867ZM111.211 163.562H113.195C114.555 163.57 115.141 163.008 115.133 162.156C115.141 161.203 114.414 160.531 113.258 160.531H111.211V163.562ZM111.211 158.922H113.023C114.008 158.93 114.75 158.375 114.742 157.469C114.75 156.648 114.141 156.094 113.07 156.094H111.211V158.922ZM119.055 165.5V154.188H126.508V156.125H121.398V158.875H126.023V160.812H121.398V165.5H119.055ZM135.617 158.125C135.43 156.875 134.469 156.117 133.148 156.109C131.391 156.117 130.227 157.461 130.227 159.844C130.227 162.281 131.406 163.57 133.133 163.578C134.422 163.57 135.391 162.867 135.617 161.641L137.992 161.656C137.734 163.75 135.977 165.656 133.102 165.656C130.078 165.656 127.836 163.523 127.836 159.844C127.836 156.148 130.117 154.031 133.102 154.031C135.711 154.031 137.68 155.523 137.992 158.125H135.617Z" fill="#5C8AFF"/>
<defs>
<filter id="filter0_d_43_9513" x="29.7842" y="16.5" width="86.4282" height="86.4282" filterUnits="userSpaceOnUse" color-interpolation-filters="sRGB">
<feFlood flood-opacity="0" result="BackgroundImageFix"/>
<feColorMatrix in="SourceAlpha" type="matrix" values="0 0 0 0 0 0 0 0 0 0 0 0 0 0 0 0 0 0 127 0" result="hardAlpha"/>
<feOffset/>
<feGaussianBlur stdDeviation="5"/>
<feComposite in2="hardAlpha" operator="out"/>
<feColorMatrix type="matrix" values="0 0 0 0 0 0 0 0 0 0 0 0 0 0 0 0 0 0 0.15 0"/>
<feBlend mode="normal" in2="BackgroundImageFix" result="effect1_dropShadow_43_9513"/>
<feBlend mode="normal" in="SourceGraphic" in2="effect1_dropShadow_43_9513" result="shape"/>
</filter>
<linearGradient id="paint0_linear_43_9513" x1="72.9982" y1="26.5" x2="72.9982" y2="92.928" gradientUnits="userSpaceOnUse">
<stop stop-color="white"/>
<stop offset="1" stop-color="#D3D4E0"/>
</linearGradient>
<linearGradient id="paint1_linear_43_9513" x1="94.6872" y1="51.4548" x2="76.7857" y2="82.2661" gradientUnits="userSpaceOnUse">
<stop stop-color="#45CEFA"/>
<stop offset="1" stop-color="#8945FA"/>
</linearGradient>
<linearGradient id="paint2_linear_43_9513" x1="63.6325" y1="47.3183" x2="62.5777" y2="51.04" gradientUnits="userSpaceOnUse">
<stop stop-color="#45CEFA"/>
<stop offset="1" stop-color="#8945FA"/>
</linearGradient>
</defs>
</svg>
