<svg width="30" height="31" viewBox="0 0 30 31" fill="none" xmlns="http://www.w3.org/2000/svg">
<path d="M21.2622 8H8.76221C6.00078 8 3.76221 10.2386 3.76221 13V21.75C3.76221 24.5114 6.00078 26.75 8.76221 26.75H21.2622C24.0236 26.75 26.2622 24.5114 26.2622 21.75V13C26.2622 10.2386 24.0236 8 21.2622 8Z" fill="#737A83"/>
<path d="M15.0122 3C15.4266 3 15.8241 3.16463 16.1171 3.45765C16.4101 3.75068 16.5747 4.1481 16.5747 4.5625V8H13.4497V4.5625C13.4497 4.1481 13.6143 3.75068 13.9073 3.45765C14.2003 3.16463 14.5977 3 15.0122 3Z" fill="#C7CED5"/>
<path d="M12.5122 15.5C12.5122 14.4645 11.6727 13.625 10.6372 13.625C9.60167 13.625 8.76221 14.4645 8.76221 15.5V18C8.76221 19.0355 9.60167 19.875 10.6372 19.875C11.6727 19.875 12.5122 19.0355 12.5122 18V15.5Z" fill="#B3EAED"/>
<path d="M21.2622 15.5C21.2622 14.4645 20.4227 13.625 19.3872 13.625C18.3516 13.625 17.5122 14.4645 17.5122 15.5V18C17.5122 19.0355 18.3516 19.875 19.3872 19.875C20.4227 19.875 21.2622 19.0355 21.2622 18V15.5Z" fill="#B3EAED"/>
<path d="M3.76221 13V20.5C3.09916 20.5 2.46331 20.2366 1.99447 19.7677C1.52563 19.2989 1.26221 18.663 1.26221 18V15.5C1.26221 14.837 1.52563 14.2011 1.99447 13.7323C2.46331 13.2634 3.09916 13 3.76221 13Z" fill="#C7CED5"/>
<path d="M26.2622 13C26.9252 13 27.5611 13.2634 28.03 13.7323C28.4988 14.2011 28.7622 14.837 28.7622 15.5V18C28.7622 18.663 28.4988 19.2989 28.03 19.7677C27.5611 20.2366 26.9252 20.5 26.2622 20.5V13Z" fill="#C7CED5"/>
</svg>
