<svg width="30" height="30" viewBox="0 0 30 30" fill="none" xmlns="http://www.w3.org/2000/svg">
<path d="M16.3572 8.98943C16.3572 8.19118 15.7101 7.54407 14.9119 7.54407C14.1136 7.54407 13.4665 8.19118 13.4665 8.98943L13.4665 14.9471C13.4665 15.7454 14.1136 16.3925 14.9119 16.3925C15.7101 16.3925 16.3572 15.7454 16.3572 14.9471L16.3572 8.98943ZM15.0176 18.4724C14.5241 18.4724 14.1187 18.631 13.8014 18.9483C13.4841 19.2656 13.3255 19.6592 13.3255 20.1293C13.3255 20.6463 13.49 21.0635 13.819 21.3807C14.1481 21.698 14.5476 21.8566 15.0176 21.8566C15.5112 21.8566 15.9166 21.698 16.2338 21.3807C16.5511 21.0635 16.7098 20.658 16.7098 20.1645C16.7098 19.671 16.5452 19.2656 16.2162 18.9483C15.8872 18.631 15.4877 18.4724 15.0176 18.4724ZM15.0176 2.5049e-06C17.0858 2.6857e-06 19.0306 0.387782 20.8519 1.16334C22.6733 1.9389 24.2656 3.00823 25.6287 4.37133C26.9918 5.73443 28.0611 7.3208 28.8367 9.13044C29.6122 10.9401 30 12.8907 30 14.9824C30 17.074 29.6122 19.0306 28.8367 20.8519C28.0611 22.6733 26.9918 24.2597 25.6287 25.611C24.2656 26.9624 22.6792 28.0317 20.8696 28.819C19.0599 29.6063 17.1093 30 15.0176 30C12.926 30 10.9694 29.6063 9.14806 28.819C7.32667 28.0317 5.74031 26.9624 4.38895 25.611C3.0376 24.2597 1.96827 22.6733 1.18096 20.8519C0.393655 19.0306 -7.77325e-07 17.074 -5.94466e-07 14.9824C-4.11608e-07 12.8907 0.393656 10.9401 1.18096 9.13044C1.96827 7.3208 3.0376 5.7403 4.38895 4.38895C5.74031 3.0376 7.32668 1.96827 9.14806 1.18097C10.9694 0.393658 12.926 2.32204e-06 15.0176 2.5049e-06ZM14.9824 3.31375C11.7626 3.31375 9.0188 4.44771 6.75088 6.71563C4.48296 8.98355 3.349 11.7509 3.349 15.0176C3.349 18.2374 4.48296 20.9812 6.75088 23.2491C9.0188 25.517 11.7744 26.651 15.0176 26.651C18.2609 26.651 21.0165 25.517 23.2844 23.2491C25.5523 20.9812 26.6863 18.2256 26.6863 14.9824C26.6863 11.7391 25.5523 8.98355 23.2844 6.71563C21.0165 4.44771 18.2491 3.31375 14.9824 3.31375Z" fill="#252423"/>
</svg>
