<svg width="40" height="40" viewBox="0 0 40 40" fill="none" xmlns="http://www.w3.org/2000/svg">
<path fill-rule="evenodd" clip-rule="evenodd" d="M26.016 6.49739C23.1043 5.2 19.8512 4.87859 16.7418 5.5811C13.6325 6.28361 10.8336 7.97239 8.76249 10.3956C6.69138 12.8188 5.45907 15.8465 5.24933 19.0273C5.03959 22.2081 5.86366 25.3715 7.59865 28.0456C9.33364 30.7198 11.8866 32.7615 14.8767 33.8662C17.8669 34.9709 21.134 35.0794 24.1909 34.1756C27.2478 33.2718 29.9306 31.404 31.8392 28.8509C33.7476 26.2982 34.7797 23.1971 34.7819 20.0099C34.7819 20.0094 34.7819 20.0104 34.7819 20.0099M34.7819 20.0099V18.4099C34.7819 16.9692 35.9498 15.8013 37.3905 15.8013C38.8312 15.8013 39.9992 16.9692 39.9992 18.4099V20.0099C39.9967 24.3227 38.6002 28.5206 36.0179 31.9748C33.4356 35.429 29.8059 37.956 25.6702 39.1788C21.5344 40.4016 17.1142 40.2548 13.0687 38.7602C9.02317 37.2656 5.56919 34.5033 3.22185 30.8853C0.874514 27.2673 -0.240413 22.9875 0.0433526 18.684C0.327118 14.3806 1.99437 10.2842 4.79646 7.00581C7.59854 3.72737 11.3853 1.44255 15.592 0.492095C19.7988 -0.458357 24.2 -0.0235118 28.1394 1.73178C29.4554 2.31815 30.0469 3.86031 29.4605 5.1763C28.8741 6.49229 27.332 7.08376 26.016 6.49739" fill="#5C8AFF"/>
<path fill-rule="evenodd" clip-rule="evenodd" d="M39.2351 4.25166C40.2543 5.26988 40.2552 6.92158 39.2369 7.94083L21.846 25.3492C21.3569 25.8388 20.6932 26.114 20.0011 26.1141C19.3091 26.1143 18.6453 25.8395 18.1559 25.3501L12.9386 20.1328C11.9199 19.1141 11.9199 17.4624 12.9386 16.4436C13.9574 15.4249 15.6091 15.4249 16.6278 16.4436L19.9996 19.8154L35.5459 4.2535C36.5641 3.23425 38.2158 3.23343 39.2351 4.25166Z" fill="#5C8AFF"/>
</svg>
