<svg width="199" height="64" viewBox="0 0 199 64" fill="none" xmlns="http://www.w3.org/2000/svg">
<path d="M44.5542 37.1509H39.4648C38.1924 37.1509 37.3997 36.353 37.4963 35.1677C37.6295 33.5122 38.5322 32.9527 41.0702 32.9527H49.154L49.234 31.9594H41.1502C40.2309 31.9594 38.6687 31.9594 37.6062 32.8236L37.7794 30.6649C38.6354 30.347 39.6213 30.2676 40.6306 30.2676H49.5204C50.5197 30.2676 51.3957 29.4597 51.4756 28.4664L51.4922 28.2711C51.5722 27.2778 50.8261 26.47 49.8269 26.47H39.4281C38.1658 26.47 36.8701 26.7944 35.7043 27.4699L35.7443 26.9666H34.7451L34.6451 28.2148C33.9923 28.7644 33.4061 29.4465 32.9198 30.2676L33.1863 26.9666H32.187L30.0054 53.9471C29.9321 54.8609 30.6182 55.6025 31.5375 55.6025H31.764C31.764 55.6025 31.794 55.5992 31.8073 55.5992C31.8373 55.5992 31.8639 55.6025 31.8939 55.6025H43.4984C48.3014 55.6025 52.0951 51.7917 52.5181 46.5406C52.9411 41.2895 49.607 37.1476 44.5542 37.1476V37.1509ZM36.1373 38.6143C35.1981 37.7204 35.0881 36.3728 35.1115 34.8167L35.1248 34.6611C35.308 32.9428 35.9008 31.8833 36.7335 31.2377L36.1373 38.6143ZM31.2944 50.3779H32.8532L32.7233 52.0003H32.1904C31.8106 52.0003 31.4476 52.1161 31.1412 52.3181L31.2977 50.3779H31.2944ZM31.2311 53.8014C31.2677 53.3577 31.6608 52.9935 32.1104 52.9935H32.6433L32.5667 53.9437C32.5401 54.2881 32.2503 54.5662 31.9139 54.5993C31.5009 54.5662 31.1978 54.2219 31.2311 53.7981V53.8014ZM33.566 53.9471L33.6426 52.9968H34.9749L34.845 54.6092H33.3695C33.476 54.4073 33.546 54.1821 33.566 53.9471ZM33.7225 52.0036L33.8524 50.3812H35.1847L35.0548 52.0036H33.7225ZM35.268 49.388H33.9357L34.4986 42.4252C34.885 42.6569 35.3213 42.8456 35.7843 43.0112L35.268 49.3913V49.388ZM36.7602 43.2959C37.7128 43.5177 38.792 43.6336 40.0077 43.6336H43.3685C45.3303 43.6336 46.5027 44.7759 46.3628 46.5439C46.1497 49.1827 43.3585 49.388 42.5058 49.388H36.2706L36.7635 43.2959H36.7602ZM36.1873 50.3812H42.4225C45.2337 50.3812 47.1722 48.8748 47.3587 46.5439C47.5453 44.213 45.9365 42.6404 43.4451 42.6404H40.0843C38.8419 42.6404 37.7661 42.5179 36.8401 42.2795L37.0033 40.2764C37.7794 40.5578 38.7587 40.73 39.9977 40.7565L43.2652 40.7763C47.2788 40.7763 49.3239 42.7827 49.0308 46.428C48.7377 50.0733 46.5127 52.0036 42.7556 52.0036H36.0541L36.184 50.3812H36.1873ZM35.8675 41.9683C35.3912 41.7762 34.9649 41.5411 34.5919 41.2597L34.8117 38.558C35.0981 39.0381 35.4945 39.4652 36.0441 39.8095L35.8709 41.9649L35.8675 41.9683ZM49.7469 27.4632C50.1932 27.4632 50.5296 27.8241 50.493 28.2711L50.4764 28.4664C50.4397 28.9101 50.0467 29.2743 49.6004 29.2743H40.7105C40.0543 29.2743 38.9685 29.2743 37.8627 29.612L38.0259 27.5924C38.4422 27.5096 38.8819 27.4632 39.3449 27.4632H49.7436H49.7469ZM37.0067 27.8937L36.8335 30.0424C36.3172 30.3205 35.8276 30.7046 35.4046 31.2244L35.6111 28.675C36.0307 28.3572 36.4971 28.0956 37.0067 27.8937ZM34.5286 29.7113L34.1255 34.6744C34.1222 34.7075 34.1155 34.7373 34.1155 34.7704V34.7902V34.8101C34.1155 34.8233 34.1155 34.8366 34.1155 34.8498L33.6726 40.3393C32.72 39.0812 32.3602 37.29 32.5534 34.9028C32.7066 33.0123 33.3595 31.1152 34.5319 29.7113H34.5286ZM33.556 41.7133L32.9331 49.3846H31.3743L32.157 39.7433C32.4935 40.5181 32.9598 41.1736 33.556 41.7133ZM43.5816 54.6092H35.8442L35.9741 52.9968H42.6757C46.9491 52.9968 49.7003 50.5401 50.03 46.428C50.3664 42.2662 47.865 39.7831 43.3485 39.7831L40.091 39.7632C38.7786 39.7367 37.8061 39.548 37.0866 39.2301L37.2398 37.3496C37.7494 37.8495 38.4889 38.1409 39.3848 38.1409H44.4743C48.9475 38.1409 51.9086 41.6736 51.5189 46.5406C51.1292 51.4076 47.8051 54.6092 43.5816 54.6092Z" fill="#231815"/>
<path d="M54.2776 25.8435C55.2291 25.8435 56.0005 25.0721 56.0005 24.1206C56.0005 23.1691 55.2291 22.3977 54.2776 22.3977C53.3261 22.3977 52.5547 23.1691 52.5547 24.1206C52.5547 25.0721 53.3261 25.8435 54.2776 25.8435Z" fill="#231815"/>
<path d="M53.9195 24.0725C54.0914 24.0725 54.2221 24.21 54.2221 24.3992C54.2221 24.578 54.1052 24.7156 53.9367 24.7156H53.4621V24.523H53.8817C53.9642 24.523 54.033 24.4851 54.033 24.3992C54.033 24.3201 53.9745 24.2719 53.8954 24.2719H53.7716C53.5653 24.2719 53.4277 24.1825 53.4277 23.9693C53.4277 23.8146 53.5343 23.677 53.6994 23.677H54.1293V23.8799H53.7785C53.6994 23.8799 53.6341 23.8937 53.6341 23.9796C53.6341 24.0312 53.6719 24.0725 53.7304 24.0725H53.9161H53.9195Z" fill="white"/>
<path d="M54.5617 23.8696H54.2969V23.677H55.0156V23.8696H54.7474V24.7156H54.5617V23.8696Z" fill="white"/>
<path d="M76.7812 38.8086C76.5908 37.6953 75.624 36.9775 74.1738 36.9629C72.7676 36.9775 71.6982 37.6367 71.7129 38.6035C71.6982 39.3213 72.2549 39.8779 73.7637 40.1855L76.6055 40.7715C79.6963 41.416 81.1904 42.793 81.2051 45.0781C81.1904 48.2129 78.3779 50.3076 74.1445 50.3223C69.8525 50.3076 67.333 48.3887 66.9668 45.2832H71.332C71.5371 46.5283 72.5479 47.1729 74.1445 47.1875C75.7266 47.1729 76.7812 46.543 76.7812 45.5176C76.7812 44.6973 76.1074 44.1846 74.6133 43.877L71.9766 43.3496C68.9443 42.749 67.3916 41.1963 67.4062 38.8379C67.3916 35.791 70.0137 33.8867 74.1152 33.8867C78.1289 33.8867 80.6191 35.791 80.8535 38.8086H76.7812ZM91.65 34.0918V37.3438H88.6617V45.1074C88.6471 46.3818 89.277 46.6895 90.1559 46.7188C90.5953 46.7188 91.357 46.6748 91.8844 46.6309V50.0586C91.4156 50.1318 90.6393 50.2197 89.5699 50.2051C86.4352 50.2197 84.2965 48.8135 84.3258 45.7227V37.3438H82.1285V34.0918H84.3258V30.2832H88.6617V34.0918H91.65ZM94.2141 50V28.7891H102.652C107.324 28.7891 109.697 31.0449 109.683 34.2383C109.697 36.7285 108.057 38.2959 105.874 38.7793V38.9844C108.262 39.1016 110.518 41.0059 110.532 44.1406C110.518 47.5098 107.998 50 103.208 50H94.2141ZM98.6086 46.3672H102.329C104.878 46.3818 105.977 45.3271 105.962 43.7305C105.977 41.9434 104.614 40.6836 102.446 40.6836H98.6086V46.3672ZM98.6086 37.666H102.007C103.853 37.6807 105.244 36.6406 105.23 34.9414C105.244 33.4033 104.102 32.3633 102.095 32.3633H98.6086V37.666ZM116.964 28.7891V50H112.628V28.7891H116.964ZM126.881 50.3223C122.077 50.3076 119.074 47.0117 119.088 42.0898C119.074 37.1826 122.077 33.8867 126.881 33.8867C131.701 33.8867 134.689 37.1826 134.704 42.0898C134.689 47.0117 131.701 50.3076 126.881 50.3223ZM123.483 42.0898C123.483 44.873 124.64 46.9385 126.911 46.9531C129.122 46.9385 130.294 44.873 130.28 42.0898C130.294 39.292 129.122 37.1973 126.911 37.1973C124.64 37.1973 123.483 39.292 123.483 42.0898ZM143.977 50.3223C139.099 50.3076 136.169 46.9385 136.184 42.0898C136.169 37.2266 139.157 33.8867 143.977 33.8867C148.078 33.8867 150.861 36.2744 151.037 39.9219H146.965C146.701 38.3545 145.676 37.2705 144.035 37.2559C141.955 37.2705 140.578 39.0137 140.578 42.0312C140.578 45.1074 141.926 46.8652 144.035 46.8652C145.559 46.8652 146.687 45.9131 146.965 44.2285H151.037C150.847 47.832 148.195 50.3076 143.977 50.3223ZM153.132 50V28.7891H157.468V40.1855H157.703L162.859 34.0918H167.839L161.907 40.9766L168.162 50H163.064L158.684 43.5254L157.468 44.9023V50H153.132Z" fill="black"/>
</svg>
