<svg width="20" height="20" viewBox="0 0 20 20" fill="none" xmlns="http://www.w3.org/2000/svg">
<circle cx="10" cy="10" r="10" fill="#F6F8FF"/>
<path d="M13.5252 10.4415C13.8019 10.939 13.9614 11.511 13.9614 12.1193C13.9614 13.5877 13.0402 14.8436 11.7469 15.341C11.3625 15.4903 10.9459 15.5711 10.5107 15.5711H6.25988C6.17905 15.5711 6.11377 15.5058 6.11377 15.4239V10.7804C6.11377 10.6985 6.17905 10.6333 6.25988 10.6333H10.5107C11.1666 10.6333 11.7677 10.4001 12.2392 10.0136C12.4267 9.85916 12.5936 9.67989 12.7335 9.48196C13.0506 9.0374 13.236 8.49336 13.236 7.90787C13.236 6.8602 12.6423 5.94828 11.7728 5.49336C11.548 5.37419 11.3044 5.28611 11.0474 5.23533C10.8744 5.2001 10.6941 5.18144 10.5107 5.18144H6.98527C6.90444 5.18144 6.83916 5.24673 6.83916 5.32859V8.5203C6.83916 8.60217 6.90444 8.66745 6.98527 8.66745H10.5107C10.9563 8.66745 11.3811 8.75243 11.7728 8.90683C12.0101 9.00113 12.2298 9.11719 12.4381 9.25813C12.4433 9.26227 12.4474 9.26538 12.4526 9.26953C12.4537 9.26953 12.4547 9.27056 12.4557 9.2716C12.4692 9.28507 12.4775 9.30372 12.4775 9.32341C12.4775 9.33688 12.4734 9.35036 12.4671 9.36175C12.4651 9.36383 12.464 9.3659 12.462 9.36797C12.348 9.52963 12.2164 9.68093 12.0692 9.81357C12.0661 9.81771 12.062 9.82082 12.0578 9.82393C12.0454 9.83222 12.0319 9.83637 12.0164 9.83637C12.0029 9.83637 11.9905 9.83222 11.9791 9.826C11.977 9.82497 11.9749 9.82393 11.9728 9.82186C11.55 9.55035 11.0495 9.39284 10.5107 9.39284H6.47646C6.27646 9.39284 6.11377 9.23118 6.11377 9.03015V4.6032C6.11377 4.52134 6.17905 4.45605 6.25988 4.45605H10.5107C10.9459 4.45605 11.3625 4.53688 11.7469 4.68611C13.0402 5.18352 13.9614 6.43947 13.9614 7.90787C13.9614 8.70061 13.693 9.43118 13.2433 10.0136C13.092 10.2084 12.921 10.3866 12.7335 10.5452C12.4485 10.7856 12.1241 10.9814 11.7728 11.1203C11.3811 11.2737 10.9563 11.3586 10.5107 11.3586H6.98527C6.90444 11.3586 6.83916 11.4239 6.83916 11.5058V14.6985C6.83916 14.7804 6.90444 14.8457 6.98527 14.8457H10.5107C10.6941 14.8457 10.8744 14.827 11.0474 14.7918C11.3044 14.741 11.548 14.6529 11.7728 14.5338C12.6423 14.0789 13.236 13.1669 13.236 12.1193C13.236 11.6664 13.1241 11.2384 12.9272 10.8623C12.893 10.796 12.9107 10.7162 12.9718 10.6716C13.0848 10.5887 13.1936 10.4996 13.2962 10.4042C13.3666 10.339 13.4785 10.3586 13.5252 10.4415Z" fill="url(#paint0_linear_43_6628)"/>
<defs>
<linearGradient id="paint0_linear_43_6628" x1="14.9221" y1="6.42497" x2="6.11377" y2="14.4042" gradientUnits="userSpaceOnUse">
<stop stop-color="#45CEFA"/>
<stop offset="1" stop-color="#8945FA"/>
</linearGradient>
</defs>
</svg>
