<svg width="40" height="40" viewBox="0 0 40 40" fill="none" xmlns="http://www.w3.org/2000/svg">
<g clip-path="url(#clip0_53_423)">
<path fill-rule="evenodd" clip-rule="evenodd" d="M19.9404 0.5C8.91388 0.5 0 9.4375 0 20.4944C0 29.3328 5.71143 36.8143 13.6347 39.4622C14.6253 39.6613 14.9882 39.032 14.9882 38.5027C14.9882 38.0391 14.9555 36.4503 14.9555 34.7948C9.40857 35.9868 8.25347 32.4113 8.25347 32.4113C7.36204 30.0941 6.04122 29.4985 6.04122 29.4985C4.22571 28.2737 6.17347 28.2737 6.17347 28.2737C8.18735 28.4061 9.24408 30.3261 9.24408 30.3261C11.0265 33.3713 13.8988 32.5109 15.0543 31.9811C15.2192 30.6901 15.7478 29.7963 16.309 29.2999C11.8849 28.8363 7.2302 27.1151 7.2302 19.4349C7.2302 17.2501 8.02204 15.4626 9.27674 14.0724C9.07878 13.576 8.38531 11.5232 9.4751 8.77572C9.4751 8.77572 11.1588 8.24597 14.9551 10.8281C16.5804 10.3904 18.2566 10.1678 19.9404 10.1659C21.6241 10.1659 23.3404 10.3979 24.9253 10.8281C28.722 8.24597 30.4057 8.77572 30.4057 8.77572C31.4955 11.5232 30.8016 13.576 30.6037 14.0724C31.8914 15.4626 32.6506 17.2501 32.6506 19.4349C32.6506 27.1151 27.9959 28.803 23.5388 29.2999C24.2653 29.9287 24.8922 31.1203 24.8922 33.0073C24.8922 35.6886 24.8596 37.8405 24.8596 38.5023C24.8596 39.032 25.2229 39.6613 26.2131 39.4626C34.1363 36.8139 39.8478 29.3328 39.8478 20.4944C39.8804 9.4375 30.9339 0.5 19.9404 0.5Z" fill="white"/>
</g>
<defs>
<clipPath id="clip0_53_423">
<rect width="40" height="39" fill="white" transform="translate(0 0.5)"/>
</clipPath>
</defs>
</svg>
