<svg width="44" height="44" viewBox="0 0 44 44" fill="none" xmlns="http://www.w3.org/2000/svg">
<g filter="url(#filter0_d_1_1614)">
<rect x="4" width="36" height="36" rx="18" fill="#5C8AFF"/>
</g>
<path fill-rule="evenodd" clip-rule="evenodd" d="M25.7206 24.4839V9.5C25.7206 9.22386 25.9444 9 26.2206 9H26.7794C27.0556 9 27.2794 9.22386 27.2794 9.5V24.4839H29.7959C30.241 24.4839 30.4642 25.0215 30.1501 25.3368L26.8542 28.6445C26.6588 28.8407 26.3412 28.8407 26.1458 28.6445L22.8499 25.3368C22.5358 25.0216 22.759 24.4839 23.2041 24.4839H25.7206Z" fill="white"/>
<path fill-rule="evenodd" clip-rule="evenodd" d="M18.2794 11.7419L18.2794 27.5C18.2794 27.7761 18.0556 28 17.7794 28L17.2206 28C16.9444 28 16.7206 27.7761 16.7206 27.5L16.7206 11.7419L14.1638 11.7419C13.7246 11.7419 13.4988 11.2163 13.8011 10.8978L17.1373 7.38218C17.3345 7.17442 17.6655 7.17442 17.8627 7.38218L21.1989 10.8978C21.5012 11.2163 21.2754 11.7419 20.8362 11.7419L18.2794 11.7419Z" fill="white"/>
<defs>
<filter id="filter0_d_1_1614" x="0" y="0" width="44" height="44" filterUnits="userSpaceOnUse" color-interpolation-filters="sRGB">
<feFlood flood-opacity="0" result="BackgroundImageFix"/>
<feColorMatrix in="SourceAlpha" type="matrix" values="0 0 0 0 0 0 0 0 0 0 0 0 0 0 0 0 0 0 127 0" result="hardAlpha"/>
<feOffset dy="4"/>
<feGaussianBlur stdDeviation="2"/>
<feComposite in2="hardAlpha" operator="out"/>
<feColorMatrix type="matrix" values="0 0 0 0 0 0 0 0 0 0 0 0 0 0 0 0 0 0 0.04 0"/>
<feBlend mode="normal" in2="BackgroundImageFix" result="effect1_dropShadow_1_1614"/>
<feBlend mode="normal" in="SourceGraphic" in2="effect1_dropShadow_1_1614" result="shape"/>
</filter>
</defs>
</svg>
