<svg width="15" height="14" viewBox="0 0 15 14" fill="none" xmlns="http://www.w3.org/2000/svg">
<path d="M6.946 10.0771H8.14183V6.41664H6.946V10.0771ZM7.50016 5.55622C7.70433 5.55622 7.87204 5.4906 8.00329 5.35935C8.13454 5.2281 8.20016 5.06525 8.20016 4.87081C8.20016 4.65692 8.13211 4.48435 7.996 4.3531C7.85989 4.22185 7.69461 4.15623 7.50016 4.15623C7.296 4.15623 7.12829 4.22185 6.99704 4.3531C6.86579 4.48435 6.80016 4.65206 6.80016 4.85623C6.80016 5.06039 6.86822 5.2281 7.00433 5.35935C7.14044 5.4906 7.30572 5.55622 7.50016 5.55622ZM7.50016 13.1979C6.64461 13.1979 5.84009 13.0375 5.08662 12.7166C4.33315 12.3958 3.67447 11.9534 3.11058 11.3896C2.54669 10.8257 2.10433 10.1694 1.7835 9.42081C1.46266 8.6722 1.30225 7.86525 1.30225 6.99998C1.30225 6.1347 1.46266 5.32532 1.7835 4.57185C2.10433 3.81838 2.54669 3.16213 3.11058 2.6031C3.67447 2.04407 4.33072 1.60171 5.07933 1.27602C5.82794 0.950323 6.63488 0.787476 7.50016 0.787476C8.36544 0.787476 9.17482 0.950323 9.92829 1.27602C10.6818 1.60171 11.338 2.04407 11.897 2.6031C12.4561 3.16213 12.8984 3.81838 13.2241 4.57185C13.5498 5.32532 13.7127 6.1347 13.7127 6.99998C13.7127 7.86525 13.5498 8.6722 13.2241 9.42081C12.8984 10.1694 12.4561 10.8232 11.897 11.3823C11.338 11.9413 10.6818 12.3837 9.92829 12.7094C9.17482 13.035 8.36544 13.1979 7.50016 13.1979ZM7.51475 11.8271C8.84669 11.8271 9.98176 11.358 10.92 10.4198C11.8581 9.48157 12.3272 8.33678 12.3272 6.98539C12.3272 5.65345 11.8581 4.51838 10.92 3.58018C9.98176 2.64199 8.84183 2.17289 7.50016 2.17289C6.1585 2.17289 5.01857 2.64199 4.08037 3.58018C3.14218 4.51838 2.67308 5.65831 2.67308 6.99998C2.67308 8.34164 3.14218 9.48157 4.08037 10.4198C5.01857 11.358 6.16336 11.8271 7.51475 11.8271Z" fill="#252423"/>
</svg>
