<svg width="40" height="40" viewBox="0 0 40 40" fill="none" xmlns="http://www.w3.org/2000/svg">
<circle cx="20" cy="20" r="20" fill="#040000"/>
<path d="M28.7625 19.9494C28.7625 19.9494 28.7592 19.9561 28.7625 19.9578C30.4233 20.9198 31.3803 22.795 31.0782 24.9468C30.641 28.0709 27.576 30.6245 24.4216 30.6245H15.9541L16.2326 29.2658H24.636C27.014 29.2658 29.2857 27.4262 29.6841 25.0751C30.0959 22.638 28.3879 20.6329 25.9322 20.6329C25.5288 20.6329 25.252 20.2903 25.3499 19.8836C25.4343 19.5308 25.7955 19.2777 26.1566 19.2743C28.6326 19.254 30.9111 17.2034 31.1305 14.7342C31.3347 12.4236 29.5744 10.6414 27.2199 10.6414H20.0436L20.322 9.28271H27.3786C30.56 9.28271 32.9263 11.838 32.4841 14.962C32.1803 17.1139 30.6933 18.989 28.7625 19.9494Z" fill="white"/>
<path d="M24.1462 23.973C23.9774 25.2033 22.8263 26.2025 21.5841 26.2025H16.8584L17.1183 24.935H21.758C22.2947 24.935 22.7909 24.5029 22.8635 23.973C22.936 23.443 22.558 23.0126 22.0213 23.0126H17.5116L17.7715 21.7451H22.1968C23.4424 21.7451 24.3166 22.7443 24.1462 23.973Z" fill="white"/>
<path d="M25.2253 15.8936C25.0582 17.0987 23.9274 18.081 22.7021 18.081H18.5215L18.7763 16.8371H22.8725C23.4008 16.8371 23.8886 16.4135 23.9611 15.8936C24.032 15.3721 23.6607 14.9502 23.1325 14.9502H19.1628L19.4177 13.7046H23.3029C24.5299 13.7046 25.3924 14.6869 25.2253 15.8936Z" fill="white"/>
<path d="M17.1892 9.28271L12.8213 30.6245H14.1985L18.5681 9.28271H17.1892Z" fill="white"/>
<path d="M14.5767 9.28271L10.207 30.6245H11.5859L15.9539 9.28271H14.5767Z" fill="white"/>
<path d="M11.9627 9.28271L7.59473 30.6245H8.97363L13.3416 9.28271H11.9627Z" fill="white"/>
</svg>
