<svg width="28" height="38" viewBox="0 0 28 38" fill="none" xmlns="http://www.w3.org/2000/svg">
<g clip-path="url(#clip0_43_7898)">
<path d="M14.4342 14.8107L20.4222 18.964C20.5444 19.0486 20.617 19.1875 20.617 19.336V28.0777L14.3384 24.2134L14.4342 14.8115V14.8107Z" fill="#3E4064"/>
<path d="M14.4341 14.8107L5.916 16.9544C5.7148 17.0047 5.57349 17.1859 5.57349 17.3935V26.7076L14.3383 24.2126L14.4341 14.8107Z" fill="url(#paint0_linear_43_7898)"/>
<path d="M20.6179 28.0777L12.0758 30.8027L5.57446 26.7077L14.3393 24.2126L20.6179 28.0777Z" fill="url(#paint1_linear_43_7898)"/>
<path d="M14.3375 11.9365L1.80103 14.3556L14.3375 11.9365Z" fill="url(#paint2_linear_43_7898)"/>
<path d="M13.9361 14.936L5.57446 17.0406L13.9361 14.936Z" fill="url(#paint3_linear_43_7898)"/>
<path d="M14.3376 11.9365C14.5995 11.8806 15.9097 11.6874 16.146 11.8143L14.3376 11.9365Z" fill="url(#paint4_linear_43_7898)"/>
<path d="M11.6303 30.5216L6.10293 27.0406C5.77399 26.8338 5.57439 26.4721 5.57439 26.0833V17.0406L1.18398 14.7197C1.00913 14.9201 0.904541 15.1811 0.904541 15.4622V29.7104C0.904541 30.0689 1.0746 30.4067 1.36282 30.6198L11.6159 37.6218C11.754 37.724 11.9113 37.7903 12.075 37.8222V30.8027L12.5764 30.643C12.2586 30.7444 11.9121 30.7005 11.6295 30.5224L11.6303 30.5216Z" fill="#3E4064"/>
<path d="M5.67187 17.1124L5.57446 17.0406V17.3935C5.57446 17.2889 5.61039 17.1907 5.67187 17.1124Z" fill="#3E4064"/>
<path d="M20.5661 19.1261L20.618 19.0989L20.4304 18.9696C20.4887 19.0111 20.5342 19.0646 20.5661 19.1261Z" fill="url(#paint5_linear_43_7898)"/>
<path d="M26.7641 17.2115L21.6774 14.5472L16.1461 11.8143C15.9106 11.6874 15.5713 11.6929 15.3094 11.7488L1.80125 14.3556C1.55374 14.4083 1.34057 14.54 1.18408 14.7197L5.57449 17.0406L5.6719 17.1125C5.73178 17.0366 5.81721 16.9792 5.91621 16.9544L13.9737 15.2842C14.2906 15.2043 14.626 15.2658 14.895 15.4518L20.424 18.9656H20.4232L20.4295 18.9704C20.4295 18.9704 20.4256 18.9672 20.424 18.9656L20.6172 19.0997L27.1665 17.5772C27.0659 17.4271 26.9285 17.3009 26.7641 17.2123V17.2115Z" fill="url(#paint6_linear_43_7898)"/>
<path d="M12.5771 30.6422L15.6095 29.6754L12.5771 30.6422Z" fill="url(#paint7_linear_43_7898)"/>
<path d="M27.1663 17.5764L20.617 19.0989L20.5651 19.1261C20.5987 19.1899 20.617 19.2618 20.617 19.336V27.2506C20.617 27.7432 20.2985 28.1791 19.829 28.3284L15.6087 29.6745L12.5763 30.6422L12.075 30.8019V37.8214C12.2546 37.8557 12.4414 37.8478 12.6211 37.7927L16.8246 36.5017L26.5595 33.5116C27.0346 33.3655 27.3587 32.9272 27.3587 32.4298V18.2079C27.3587 17.9787 27.2893 17.76 27.1655 17.5764H27.1663Z" fill="url(#paint8_linear_43_7898)"/>
<path d="M10.9212 16.1249C10.8669 16.0969 10.8182 16.0586 10.7791 16.0099L10.9212 16.1249Z" fill="#3E4064"/>
</g>
<g clip-path="url(#clip1_43_7898)">
<path d="M9.24448 0.85968C9.16623 0.916367 9.10555 0.998602 9.07601 1.09601L6.67283 9.15188C6.62971 9.29639 6.66085 9.45208 6.75666 9.56864L7.65805 10.6672L11.3379 15.1511C11.377 15.199 11.4257 15.2381 11.48 15.266L14.2465 6.32633L9.24448 0.85968Z" fill="url(#paint9_linear_43_7898)"/>
<path d="M23.1271 6.39178C23.1471 6.46923 23.1463 6.55226 23.1223 6.6321L22.7295 7.94867" fill="url(#paint10_linear_43_7898)"/>
<path d="M23.1269 6.39182L14.2455 6.32635L11.479 15.2661C11.5373 15.2964 11.602 15.314 11.669 15.3164L20.0786 15.6429C20.2854 15.6509 20.4706 15.5183 20.5297 15.3203L22.7293 7.94871L23.1221 6.63214C23.146 6.5531 23.146 6.47007 23.1269 6.39182Z" fill="url(#paint11_linear_43_7898)"/>
<path d="M23.0295 6.20416C23.0774 6.25845 23.1102 6.32312 23.1269 6.39179L23.0295 6.20416Z" fill="url(#paint12_linear_43_7898)"/>
<path d="M23.0296 6.20419L18.2735 0.768671C18.1857 0.668073 18.0579 0.611386 17.9246 0.613781L14.315 0.681646L9.50147 0.772663C9.40646 0.77426 9.31784 0.806196 9.24438 0.859689L14.2464 6.32634L23.1278 6.39181C23.1102 6.32315 23.0783 6.25928 23.0304 6.20419H23.0296Z" fill="url(#paint13_linear_43_7898)"/>
</g>
<defs>
<linearGradient id="paint0_linear_43_7898" x1="5.56311" y1="20.7592" x2="14.2356" y2="20.8337" gradientUnits="userSpaceOnUse">
<stop stop-color="#3A9DD5"/>
<stop offset="1" stop-color="#FFC4D9"/>
</linearGradient>
<linearGradient id="paint1_linear_43_7898" x1="5.55685" y1="27.5076" x2="20.2718" y2="27.8954" gradientUnits="userSpaceOnUse">
<stop stop-color="#3A9DD5"/>
<stop offset="1" stop-color="#FFC4D9"/>
</linearGradient>
<linearGradient id="paint2_linear_43_7898" x1="1.78635" y1="13.146" x2="14.0138" y2="13.8775" gradientUnits="userSpaceOnUse">
<stop stop-color="#3A9DD5"/>
<stop offset="1" stop-color="#FFC4D9"/>
</linearGradient>
<linearGradient id="paint3_linear_43_7898" x1="5.56467" y1="15.9883" x2="13.7322" y2="16.3629" gradientUnits="userSpaceOnUse">
<stop stop-color="#3A9DD5"/>
<stop offset="1" stop-color="#FFC4D9"/>
</linearGradient>
<linearGradient id="paint4_linear_43_7898" x1="14.3355" y1="11.8542" x2="16.0776" y2="12.0752" gradientUnits="userSpaceOnUse">
<stop stop-color="#3A9DD5"/>
<stop offset="1" stop-color="#FFC4D9"/>
</linearGradient>
<linearGradient id="paint5_linear_43_7898" x1="20.4302" y1="19.0478" x2="20.6138" y2="19.0504" gradientUnits="userSpaceOnUse">
<stop stop-color="#3A9DD5"/>
<stop offset="1" stop-color="#FFC4D9"/>
</linearGradient>
<linearGradient id="paint6_linear_43_7898" x1="1.15366" y1="15.4054" x2="26.5444" y2="16.4361" gradientUnits="userSpaceOnUse">
<stop stop-color="#3A9DD5"/>
<stop offset="1" stop-color="#FFC4D9"/>
</linearGradient>
<linearGradient id="paint7_linear_43_7898" x1="12.5736" y1="30.1588" x2="15.5379" y2="30.2661" gradientUnits="userSpaceOnUse">
<stop stop-color="#3A9DD5"/>
<stop offset="1" stop-color="#FFC4D9"/>
</linearGradient>
<linearGradient id="paint8_linear_43_7898" x1="12.0571" y1="27.7092" x2="27.0163" y2="27.8394" gradientUnits="userSpaceOnUse">
<stop stop-color="#3A9DD5"/>
<stop offset="1" stop-color="#FFC4D9"/>
</linearGradient>
<linearGradient id="paint9_linear_43_7898" x1="13.5199" y1="6.6417" x2="2.22254" y2="10.1946" gradientUnits="userSpaceOnUse">
<stop stop-color="#3E4064"/>
<stop offset="0.380141" stop-color="#50657F"/>
<stop offset="1" stop-color="#87ADB3"/>
</linearGradient>
<linearGradient id="paint10_linear_43_7898" x1="22.729" y1="7.17023" x2="23.132" y2="7.17146" gradientUnits="userSpaceOnUse">
<stop stop-color="#3A9DD5"/>
<stop offset="1" stop-color="#FFC4D9"/>
</linearGradient>
<linearGradient id="paint11_linear_43_7898" x1="19.8271" y1="5.72356" x2="17.1534" y2="17.9938" gradientUnits="userSpaceOnUse">
<stop stop-color="#3A9DD5"/>
<stop offset="1" stop-color="#FFC4D9"/>
</linearGradient>
<linearGradient id="paint12_linear_43_7898" x1="23.0294" y1="6.29797" x2="23.1248" y2="6.29855" gradientUnits="userSpaceOnUse">
<stop stop-color="#3A9DD5"/>
<stop offset="1" stop-color="#FFC4D9"/>
</linearGradient>
<linearGradient id="paint13_linear_43_7898" x1="9.22813" y1="3.50276" x2="22.8073" y2="3.87939" gradientUnits="userSpaceOnUse">
<stop stop-color="#3A9DD5"/>
<stop offset="1" stop-color="#FFC4D9"/>
</linearGradient>
<clipPath id="clip0_43_7898">
<rect width="26.455" height="26.1317" fill="white" transform="translate(0.904541 11.7113)"/>
</clipPath>
<clipPath id="clip1_43_7898">
<rect width="16.4878" height="15.0291" fill="white" transform="translate(6.65356 0.61377)"/>
</clipPath>
</defs>
</svg>
