<svg width="24" height="18" viewBox="0 0 24 18" fill="none" xmlns="http://www.w3.org/2000/svg">
<path d="M23.3985 5.17504C22.275 2.20012 19.4201 0.200012 16.2928 0.200012C14.5952 0.200012 12.9899 0.757381 11.648 1.81478C11.2202 2.15424 10.8262 2.53958 10.4749 2.95933C9.93684 3.60845 9.50906 4.33555 9.20736 5.1177C8.85838 6.02371 8.68276 6.97789 8.68276 7.95271V15.7559C8.68276 15.8728 8.5927 15.9646 8.47562 15.9646H2.30203C2.18721 15.9646 2.09489 15.8706 2.09489 15.7536V3.13365C2.09489 2.89052 1.90127 2.69326 1.66261 2.69326H0.725988C0.487329 2.69326 0.293701 2.89052 0.293701 3.13365V17.3615C0.293701 17.6023 0.487329 17.7996 0.723736 17.7996H10.0517C10.2903 17.7996 10.484 17.6023 10.484 17.3615V7.95271C10.484 6.59025 10.9523 5.25762 11.8056 4.20022C12.1365 3.79194 12.5171 3.42954 12.9381 3.12677C13.9197 2.41343 15.0815 2.03497 16.2928 2.03497C18.461 2.03497 20.4333 3.25292 21.4397 5.21174C21.6986 5.70947 21.8833 6.23702 21.9891 6.78751C22.0656 7.16827 22.1039 7.56049 22.1039 7.95271V15.7559C22.1039 15.8706 22.0116 15.9646 21.899 15.9646H12.8548C12.7377 15.9646 12.6296 16.0105 12.5463 16.0953C12.4653 16.1802 12.4202 16.2903 12.4202 16.4096L12.4292 17.3638C12.4315 17.6046 12.6251 17.7996 12.8615 17.7996H23.4706C23.7092 17.7996 23.9028 17.6023 23.9028 17.3592V7.95271C23.9028 6.99395 23.7317 6.05812 23.3963 5.17504H23.3985Z" fill="url(#paint0_linear_172_1080)"/>
<path d="M0.720734 0.200012H4.5885C4.82426 0.200012 5.01553 0.389812 5.01553 0.623752V1.4933C5.01553 1.72724 4.82426 1.91704 4.5885 1.91704H0.720734C0.484976 1.91704 0.293701 1.72724 0.293701 1.4933V0.623752C0.293701 0.389812 0.484976 0.200012 0.720734 0.200012Z" fill="url(#paint1_linear_172_1080)"/>
<defs>
<linearGradient id="paint0_linear_172_1080" x1="26.7928" y1="3.31759" x2="14.6171" y2="24.2739" gradientUnits="userSpaceOnUse">
<stop stop-color="#45CEFA"/>
<stop offset="1" stop-color="#8945FA"/>
</linearGradient>
<linearGradient id="paint1_linear_172_1080" x1="5.59352" y1="0.504166" x2="4.8761" y2="3.03552" gradientUnits="userSpaceOnUse">
<stop stop-color="#45CEFA"/>
<stop offset="1" stop-color="#8945FA"/>
</linearGradient>
</defs>
</svg>
