<svg width="114" height="32" viewBox="0 0 114 32" fill="none" xmlns="http://www.w3.org/2000/svg">
<rect y="2" width="104" height="20" rx="10" fill="#9EA3B5"/>
<g filter="url(#filter0_d_36_4080)">
<rect x="51" y="2" width="53" height="20" rx="10" fill="black" shape-rendering="crispEdges"/>
<path d="M64.13 16.12C63.02 16.12 61.9 15.79 61.28 15.31L61.83 14.09C62.42 14.52 63.3 14.82 64.14 14.82C65.1 14.82 65.49 14.5 65.49 14.07C65.49 12.76 61.42 13.66 61.42 11.06C61.42 9.87 62.38 8.88 64.37 8.88C65.25 8.88 66.15 9.09 66.8 9.5L66.3 10.73C65.65 10.36 64.98 10.18 64.36 10.18C63.4 10.18 63.03 10.54 63.03 10.98C63.03 12.27 67.1 11.38 67.1 13.95C67.1 15.12 66.13 16.12 64.13 16.12ZM71.147 14.64L71.567 15.74C71.247 15.97 70.777 16.08 70.297 16.08C69.027 16.08 68.287 15.43 68.287 14.15V11.94H67.457V10.74H68.287V9.43H69.847V10.74H71.187V11.94H69.847V14.13C69.847 14.59 70.097 14.84 70.517 14.84C70.747 14.84 70.977 14.77 71.147 14.64ZM77.5466 13.33C77.5466 13.45 77.5266 13.62 77.5166 13.75H73.4466C73.5966 14.42 74.1666 14.83 74.9866 14.83C75.5566 14.83 75.9666 14.66 76.3366 14.31L77.1666 15.21C76.6666 15.78 75.9166 16.08 74.9466 16.08C73.0866 16.08 71.8766 14.91 71.8766 13.31C71.8766 11.7 73.1066 10.54 74.7466 10.54C76.3266 10.54 77.5466 11.6 77.5466 13.33ZM74.7566 11.72C74.0466 11.72 73.5366 12.15 73.4266 12.84H76.0766C75.9666 12.16 75.4566 11.72 74.7566 11.72ZM81.7652 10.54C83.2752 10.54 84.4452 11.62 84.4452 13.31C84.4452 15 83.2752 16.08 81.7652 16.08C81.0952 16.08 80.5452 15.87 80.1452 15.43V17.94H78.5852V10.62H80.0752V11.24C80.4652 10.77 81.0452 10.54 81.7652 10.54ZM81.4952 14.8C82.2752 14.8 82.8652 14.24 82.8652 13.31C82.8652 12.38 82.2752 11.82 81.4952 11.82C80.7152 11.82 80.1252 12.38 80.1252 13.31C80.1252 14.24 80.7152 14.8 81.4952 14.8ZM90.2116 14.68H93.2216V16H87.9316V14.95L90.6316 12.4C91.2516 11.81 91.3616 11.45 91.3616 11.11C91.3616 10.56 90.9816 10.24 90.2416 10.24C89.6416 10.24 89.1316 10.47 88.7916 10.94L87.6116 10.18C88.1516 9.39 89.1316 8.88 90.3916 8.88C91.9516 8.88 92.9916 9.68 92.9916 10.95C92.9916 11.63 92.8016 12.25 91.8216 13.16L90.2116 14.68Z" fill="white"/>
</g>
<defs>
<filter id="filter0_d_36_4080" x="49" y="0" width="65" height="32" filterUnits="userSpaceOnUse" color-interpolation-filters="sRGB">
<feFlood flood-opacity="0" result="BackgroundImageFix"/>
<feColorMatrix in="SourceAlpha" type="matrix" values="0 0 0 0 0 0 0 0 0 0 0 0 0 0 0 0 0 0 127 0" result="hardAlpha"/>
<feOffset dx="4" dy="4"/>
<feGaussianBlur stdDeviation="3"/>
<feComposite in2="hardAlpha" operator="out"/>
<feColorMatrix type="matrix" values="0 0 0 0 0 0 0 0 0 0 0 0 0 0 0 0 0 0 0.2 0"/>
<feBlend mode="normal" in2="BackgroundImageFix" result="effect1_dropShadow_36_4080"/>
<feBlend mode="normal" in="SourceGraphic" in2="effect1_dropShadow_36_4080" result="shape"/>
</filter>
</defs>
</svg>
