<svg width="22" height="21" viewBox="0 0 22 21" fill="none" xmlns="http://www.w3.org/2000/svg">
<path fill-rule="evenodd" clip-rule="evenodd" d="M11.0001 18.2798C15.2863 18.2798 18.7609 14.8291 18.7609 10.5725C18.7609 6.31588 15.2863 2.86521 11.0001 2.86521C6.71391 2.86521 3.23928 6.31588 3.23928 10.5725C3.23928 14.8291 6.71391 18.2798 11.0001 18.2798ZM21.5 10.5725C21.5 16.3314 16.799 21 11.0001 21C5.20114 21 0.500167 16.3314 0.500167 10.5725C0.500166 4.81355 5.20114 0.144994 11.0001 0.144994C16.799 0.144993 21.5 4.81354 21.5 10.5725Z" fill="#E44545"/>
<path fill-rule="evenodd" clip-rule="evenodd" d="M11.0001 15.5596C10.2437 15.5596 9.63052 14.9506 9.63052 14.1995L9.63052 10.5725C9.63052 9.82133 10.2437 9.21239 11.0001 9.21239C11.7565 9.21239 12.3696 9.82133 12.3696 10.5725L12.3696 14.1995C12.3696 14.9506 11.7565 15.5596 11.0001 15.5596Z" fill="#E44545"/>
<path fill-rule="evenodd" clip-rule="evenodd" d="M12.3696 6.94555C12.3696 7.69672 11.7565 8.30566 11.0001 8.30566L10.9898 8.30566C10.2334 8.30566 9.62025 7.69672 9.62025 6.94555C9.62025 6.19439 10.2334 5.58545 10.9898 5.58545L11.0001 5.58545C11.7565 5.58545 12.3696 6.19439 12.3696 6.94555Z" fill="#E44545"/>
</svg>
