<svg width="40" height="40" viewBox="0 0 40 40" fill="none" xmlns="http://www.w3.org/2000/svg">
<circle cx="20" cy="20" r="20" fill="#F6F8FF"/>
<path d="M27.0503 20.8829C27.6037 21.8777 27.9229 23.0218 27.9229 24.2383C27.9229 27.1751 26.0804 29.687 23.4939 30.6819C22.7249 30.9803 21.8918 31.142 21.0213 31.142H12.5198C12.3581 31.142 12.2275 31.0114 12.2275 30.8477V21.5606C12.2275 21.3969 12.3581 21.2663 12.5198 21.2663H21.0213C22.3332 21.2663 23.5353 20.8 24.4783 20.0269C24.8534 19.7181 25.1871 19.3596 25.4669 18.9637C26.1011 18.0746 26.4721 16.9865 26.4721 15.8155C26.4721 13.7202 25.2845 11.8964 23.5457 10.9865C23.0959 10.7482 22.6089 10.572 22.0949 10.4705C21.7488 10.4 21.3882 10.3627 21.0213 10.3627H13.9705C13.8089 10.3627 13.6783 10.4933 13.6783 10.657V17.0404C13.6783 17.2041 13.8089 17.3347 13.9705 17.3347H21.0213C21.9125 17.3347 22.7623 17.5047 23.5457 17.8135C24.0203 18.0021 24.4597 18.2342 24.8762 18.5161C24.8866 18.5244 24.8949 18.5306 24.9053 18.5389C24.9073 18.5389 24.9094 18.5409 24.9115 18.543C24.9384 18.57 24.955 18.6073 24.955 18.6466C24.955 18.6736 24.9467 18.7005 24.9343 18.7233C24.9301 18.7275 24.9281 18.7316 24.9239 18.7358C24.6959 19.0591 24.4327 19.3617 24.1384 19.6269C24.1322 19.6352 24.1239 19.6415 24.1156 19.6477C24.0908 19.6643 24.0638 19.6725 24.0327 19.6725C24.0058 19.6725 23.9809 19.6643 23.9581 19.6518C23.954 19.6497 23.9498 19.6477 23.9457 19.6435C23.1001 19.1005 22.099 18.7855 21.0213 18.7855H12.9529C12.5529 18.7855 12.2275 18.4622 12.2275 18.0601V9.20622C12.2275 9.04249 12.3581 8.91192 12.5198 8.91192H21.0213C21.8918 8.91192 22.7249 9.07358 23.4939 9.37202C26.0804 10.3668 27.9229 12.8788 27.9229 15.8155C27.9229 17.401 27.3861 18.8622 26.4866 20.0269C26.184 20.4166 25.842 20.7731 25.4669 21.0902C24.897 21.571 24.2483 21.9627 23.5457 22.2404C22.7623 22.5472 21.9125 22.7171 21.0213 22.7171H13.9705C13.8089 22.7171 13.6783 22.8477 13.6783 23.0114V29.3969C13.6783 29.5606 13.8089 29.6912 13.9705 29.6912H21.0213C21.3882 29.6912 21.7488 29.6539 22.0949 29.5834C22.6089 29.4819 23.0959 29.3057 23.5457 29.0674C25.2845 28.1575 26.4721 26.3337 26.4721 24.2383C26.4721 23.3326 26.2483 22.4767 25.8545 21.7244C25.7861 21.5917 25.8213 21.4321 25.9436 21.343C26.1695 21.1772 26.3871 20.999 26.5923 20.8083C26.7332 20.6777 26.9571 20.7171 27.0503 20.8829Z" fill="url(#paint0_linear_36_4086)"/>
<defs>
<linearGradient id="paint0_linear_36_4086" x1="29.8441" y1="12.8497" x2="12.2275" y2="28.8083" gradientUnits="userSpaceOnUse">
<stop stop-color="#45CEFA"/>
<stop offset="1" stop-color="#8945FA"/>
</linearGradient>
</defs>
</svg>
