<svg width="40" height="32" viewBox="0 0 40 32" fill="none" xmlns="http://www.w3.org/2000/svg">
<path d="M33.8838 3.346C31.2558 2.13949 28.4814 1.28355 25.6315 0.800049C25.2415 1.49912 24.8887 2.21837 24.5744 2.9548C21.5387 2.49609 18.4517 2.49609 15.416 2.9548C15.1016 2.21845 14.7487 1.49921 14.3589 0.800049C11.5072 1.28763 8.731 2.1456 6.10032 3.35231C0.87774 11.1006 -0.538019 18.6564 0.169861 26.1049C3.22833 28.3709 6.65164 30.0942 10.291 31.2C11.1104 30.0948 11.8356 28.9223 12.4587 27.695C11.2752 27.2517 10.1329 26.7049 9.0451 26.0608C9.3314 25.8526 9.6114 25.638 9.88197 25.4298C13.0473 26.9225 16.5021 27.6964 19.9999 27.6964C23.4978 27.6964 26.9526 26.9225 30.1179 25.4298C30.3916 25.6538 30.6716 25.8683 30.9548 26.0608C29.8648 26.7059 28.7205 27.2538 27.5349 27.6981C28.1572 28.9249 28.8824 30.0964 29.7026 31.2C33.345 30.0987 36.771 28.3762 39.83 26.1081C40.6606 17.4702 38.4111 9.98376 33.8838 3.346ZM13.3553 21.5241C11.3827 21.5241 9.75298 19.729 9.75298 17.5206C9.75298 15.3123 11.326 13.5014 13.349 13.5014C15.372 13.5014 16.9891 15.3123 16.9545 17.5206C16.9199 19.729 15.3657 21.5241 13.3553 21.5241ZM26.6446 21.5241C24.6688 21.5241 23.0454 19.729 23.0454 17.5206C23.0454 15.3123 24.6185 13.5014 26.6446 13.5014C28.6707 13.5014 30.2752 15.3123 30.2406 17.5206C30.206 19.729 28.6549 21.5241 26.6446 21.5241Z" fill="white"/>
</svg>
