<svg width="21" height="20" viewBox="0 0 21 20" fill="none" xmlns="http://www.w3.org/2000/svg">
<path d="M14.36 9.26C10.68 9.26 8.92 6.02 6.96 6.02C5.64 6.02 4.76 7.06 4.68 8.82H0C0.08 3.54 2.72 0.619995 6.4 0.619995C10.12 0.619995 11.88 3.86 13.84 3.86C15.16 3.86 16 2.78 16.08 1.02H20.76C20.68 6.34 18.08 9.26 14.36 9.26ZM14.36 19.38C10.68 19.38 8.92 16.1 6.96 16.1C5.64 16.1 4.76 17.18 4.68 18.94H0C0.08 13.66 2.72 10.7 6.4 10.7C10.12 10.7 11.88 13.94 13.84 13.94C15.16 13.94 16 12.9 16.08 11.14H20.76C20.68 16.42 18.08 19.38 14.36 19.38Z" fill="#2B2B2B"/>
</svg>
