<svg width="89" height="88" viewBox="0 0 89 88" fill="none" xmlns="http://www.w3.org/2000/svg">
<circle cx="44.5" cy="44" r="44" fill="white"/>
<path d="M69.5767 35.5852C67.105 29.0404 60.8242 24.6401 53.9441 24.6401C50.2093 24.6401 46.6777 25.8663 43.7255 28.1926C42.7844 28.9394 41.9175 29.7872 41.1448 30.7106C39.961 32.1387 39.0199 33.7383 38.3561 35.4591C37.5884 37.4523 37.202 39.5515 37.202 41.6961V58.863C37.202 59.1204 37.0039 59.3222 36.7463 59.3222H23.1644C22.9118 59.3222 22.7087 59.1153 22.7087 58.858V31.0941C22.7087 30.5593 22.2827 30.1253 21.7577 30.1253H19.6971C19.1721 30.1253 18.7461 30.5593 18.7461 31.0941V62.3953C18.7461 62.9252 19.1721 63.3591 19.6922 63.3591H40.2136C40.7387 63.3591 41.1646 62.9252 41.1646 62.3953V41.6961C41.1646 38.6987 42.1949 35.7669 44.0722 33.4406C44.8004 32.5424 45.6375 31.7451 46.5637 31.079C48.7234 29.5097 51.2793 28.677 53.9441 28.677C58.7141 28.677 63.0532 31.3565 65.2673 35.6659C65.8369 36.761 66.2431 37.9216 66.4759 39.1326C66.6443 39.9703 66.7285 40.8332 66.7285 41.6961V58.863C66.7285 59.1153 66.5255 59.3222 66.2778 59.3222H46.3805C46.1229 59.3222 45.8851 59.4231 45.7019 59.6099C45.5235 59.7966 45.4245 60.0388 45.4245 60.3012L45.4443 62.4004C45.4492 62.9302 45.8752 63.3591 46.3953 63.3591H69.7352C70.2602 63.3591 70.6862 62.9252 70.6862 62.3903V41.6961C70.6862 39.5868 70.3098 37.528 69.5717 35.5852H69.5767Z" fill="url(#paint0_linear_36_4581)"/>
<path d="M19.6856 24.6401H28.1946C28.7133 24.6401 29.1341 25.0577 29.1341 25.5724V27.4854C29.1341 28 28.7133 28.4176 28.1946 28.4176H19.6856C19.1669 28.4176 18.7461 28 18.7461 27.4854V25.5724C18.7461 25.0577 19.1669 24.6401 19.6856 24.6401Z" fill="url(#paint1_linear_36_4581)"/>
<defs>
<linearGradient id="paint0_linear_36_4581" x1="77.0441" y1="31.4988" x2="50.2575" y2="77.6028" gradientUnits="userSpaceOnUse">
<stop stop-color="#45CEFA"/>
<stop offset="1" stop-color="#8945FA"/>
</linearGradient>
<linearGradient id="paint1_linear_36_4581" x1="30.4057" y1="25.3093" x2="28.8274" y2="30.8782" gradientUnits="userSpaceOnUse">
<stop stop-color="#45CEFA"/>
<stop offset="1" stop-color="#8945FA"/>
</linearGradient>
</defs>
</svg>
