<svg width="180" height="76" viewBox="0 0 180 76" fill="none" xmlns="http://www.w3.org/2000/svg">
<rect y="18" width="159" height="32" rx="16" fill="white"/>
<rect x="1.06006" y="19.0669" width="67.84" height="29.8667" rx="14.9333" fill="white"/>
<path d="M20.7378 31.9219C20.644 31.0234 19.9331 30.5 18.7847 30.5C17.5972 30.5 16.9331 31.0469 16.9253 31.7969C16.9175 32.6172 17.7612 32.9844 18.7378 33.2031L19.7534 33.4531C21.6909 33.8984 23.1362 34.8828 23.144 36.7656C23.1362 38.8359 21.5269 40.1641 18.769 40.1562C16.0347 40.1641 14.2925 38.8984 14.2222 36.4688H16.5034C16.5815 37.6094 17.4878 38.1875 18.7378 38.1875C19.9722 38.1875 20.769 37.6094 20.769 36.7656C20.769 35.9922 20.0659 35.6328 18.8315 35.3281L17.5972 35.0312C15.6909 34.5625 14.519 33.6094 14.519 31.9531C14.5112 29.8984 16.3237 28.5312 18.8003 28.5312C21.3081 28.5312 22.9565 29.9219 22.9878 31.9219H20.7378ZM29.0972 31.5156V33.25H27.5034V37.3906C27.4956 38.0703 27.8315 38.2344 28.3003 38.25C28.5347 38.25 28.9409 38.2266 29.2222 38.2031V40.0312C28.9722 40.0703 28.5581 40.1172 27.9878 40.1094C26.3159 40.1172 25.1753 39.3672 25.1909 37.7188V33.25H24.019V31.5156H25.1909V29.4844H27.5034V31.5156H29.0972ZM30.144 37.625C30.1519 35.7344 31.6675 35.1172 33.3003 35.0156C33.9097 34.9766 35.0503 34.9219 35.4097 34.9062V34.2188C35.4019 33.5078 34.9175 33.1016 34.0503 33.0938C33.2612 33.1016 32.769 33.4531 32.644 34.0312H30.4409C30.5815 32.5625 31.8628 31.4062 34.1128 31.4062C35.9644 31.4062 37.7144 32.2344 37.7065 34.2812V40H35.519V38.8281H35.4565C35.0425 39.6094 34.23 40.1641 32.9722 40.1562C31.3472 40.1641 30.1519 39.3047 30.144 37.625ZM32.3628 37.5625C32.3628 38.2109 32.8862 38.5547 33.6284 38.5625C34.6831 38.5547 35.4175 37.8672 35.4097 36.9688V36.3516C35.0581 36.3672 34.0659 36.4219 33.6753 36.4531C32.8706 36.5234 32.3628 36.9062 32.3628 37.5625ZM39.4722 40V28.6875H41.7847V34.7656H41.9097L44.6597 31.5156H47.3159L44.1519 35.1875L47.4878 40H44.769L42.4331 36.5469L41.7847 37.2812V40H39.4722ZM51.8784 40.1719C49.2769 40.1641 47.6831 38.4844 47.6909 35.7969C47.6831 33.1797 49.3003 31.4062 51.7847 31.4062C54.0112 31.4062 55.769 32.8125 55.769 35.7031V36.3594H49.9722C49.9722 37.6406 50.73 38.4297 51.9253 38.4375C52.7144 38.4297 53.2769 38.0859 53.5034 37.5781H55.7065C55.3784 39.1484 53.9722 40.1641 51.8784 40.1719ZM49.9722 34.9062H53.5815C53.5737 33.875 52.8628 33.1328 51.8315 33.1406C50.769 33.1328 50.019 33.9297 49.9722 34.9062Z" fill="black"/>
<g filter="url(#filter0_d_1_1676)">
<rect x="75.54" y="20" width="80" height="28" rx="14" fill="black" shape-rendering="crispEdges"/>
<path d="M92.4697 28.6875H94.8291V36.0312C94.8291 38.5078 92.9463 40.1641 90.1416 40.1562C87.3291 40.1641 85.4697 38.5078 85.4697 36.0312V28.6875H87.8135V35.8438C87.8213 37.1484 88.7432 38.0859 90.1416 38.0938C91.5557 38.0859 92.4775 37.1484 92.4697 35.8438V28.6875ZM99.001 35.0938V40H96.6885V31.5156H98.8916V33H98.9854C99.3682 32.0234 100.274 31.4062 101.532 31.4062C103.306 31.4062 104.462 32.6172 104.454 34.5938V40H102.157V35C102.149 33.9531 101.587 33.3281 100.626 33.3281C99.665 33.3281 99.001 33.9766 99.001 35.0938ZM111.095 34.0312C110.993 33.4375 110.478 33.0547 109.704 33.0469C108.954 33.0547 108.384 33.4062 108.392 33.9219C108.384 34.3047 108.681 34.6016 109.485 34.7656L111.001 35.0781C112.649 35.4219 113.446 36.1562 113.454 37.375C113.446 39.0469 111.946 40.1641 109.688 40.1719C107.399 40.1641 106.056 39.1406 105.86 37.4844H108.188C108.298 38.1484 108.837 38.4922 109.688 38.5C110.532 38.4922 111.095 38.1562 111.095 37.6094C111.095 37.1719 110.735 36.8984 109.938 36.7344L108.532 36.4531C106.915 36.1328 106.087 35.3047 106.095 34.0469C106.087 32.4219 107.485 31.4062 109.673 31.4062C111.813 31.4062 113.142 32.4219 113.267 34.0312H111.095ZM119.345 31.5156V33.25H117.751V37.3906C117.743 38.0703 118.079 38.2344 118.548 38.25C118.782 38.25 119.188 38.2266 119.47 38.2031V40.0312C119.22 40.0703 118.806 40.1172 118.235 40.1094C116.563 40.1172 115.423 39.3672 115.438 37.7188V33.25H114.267V31.5156H115.438V29.4844H117.751V31.5156H119.345ZM120.392 37.625C120.399 35.7344 121.915 35.1172 123.548 35.0156C124.157 34.9766 125.298 34.9219 125.657 34.9062V34.2188C125.649 33.5078 125.165 33.1016 124.298 33.0938C123.509 33.1016 123.017 33.4531 122.892 34.0312H120.688C120.829 32.5625 122.11 31.4062 124.36 31.4062C126.212 31.4062 127.962 32.2344 127.954 34.2812V40H125.767V38.8281H125.704C125.29 39.6094 124.478 40.1641 123.22 40.1562C121.595 40.1641 120.399 39.3047 120.392 37.625ZM122.61 37.5625C122.61 38.2109 123.134 38.5547 123.876 38.5625C124.931 38.5547 125.665 37.8672 125.657 36.9688V36.3516C125.306 36.3672 124.313 36.4219 123.923 36.4531C123.118 36.5234 122.61 36.9062 122.61 37.5625ZM129.72 40V28.6875H132.032V34.7656H132.157L134.907 31.5156H137.563L134.399 35.1875L137.735 40H135.017L132.681 36.5469L132.032 37.2812V40H129.72ZM142.126 40.1719C139.524 40.1641 137.931 38.4844 137.938 35.7969C137.931 33.1797 139.548 31.4062 142.032 31.4062C144.259 31.4062 146.017 32.8125 146.017 35.7031V36.3594H140.22C140.22 37.6406 140.978 38.4297 142.173 38.4375C142.962 38.4297 143.524 38.0859 143.751 37.5781H145.954C145.626 39.1484 144.22 40.1641 142.126 40.1719ZM140.22 34.9062H143.829C143.821 33.875 143.11 33.1328 142.079 33.1406C141.017 33.1328 140.267 33.9297 140.22 34.9062Z" fill="white"/>
</g>
<defs>
<filter id="filter0_d_1_1676" x="51.54" y="0" width="128" height="76" filterUnits="userSpaceOnUse" color-interpolation-filters="sRGB">
<feFlood flood-opacity="0" result="BackgroundImageFix"/>
<feColorMatrix in="SourceAlpha" type="matrix" values="0 0 0 0 0 0 0 0 0 0 0 0 0 0 0 0 0 0 127 0" result="hardAlpha"/>
<feOffset dy="4"/>
<feGaussianBlur stdDeviation="12"/>
<feComposite in2="hardAlpha" operator="out"/>
<feColorMatrix type="matrix" values="0 0 0 0 0 0 0 0 0 0 0 0 0 0 0 0 0 0 0.12 0"/>
<feBlend mode="normal" in2="BackgroundImageFix" result="effect1_dropShadow_1_1676"/>
<feBlend mode="normal" in="SourceGraphic" in2="effect1_dropShadow_1_1676" result="shape"/>
</filter>
</defs>
</svg>
