<svg width="41" height="44" viewBox="0 0 41 44" fill="none" xmlns="http://www.w3.org/2000/svg">
<path d="M22.6764 22.0002C22.6764 28.3242 17.6 33.4508 11.3384 33.4508C5.07673 33.4508 0 28.3242 0 22.0002C0 15.6762 5.07635 10.5493 11.3384 10.5493C17.6004 10.5493 22.6764 15.6762 22.6764 22.0002Z" fill="#F1F1F1"/>
<path d="M35.0151 22C35.0151 27.9527 32.477 32.7802 29.346 32.7802C26.2149 32.7802 23.6768 27.9527 23.6768 22C23.6768 16.0473 26.2145 11.2198 29.3456 11.2198C32.4766 11.2198 35.0151 16.0458 35.0151 22Z" fill="#F1F1F1"/>
<path d="M40.002 22C40.002 27.3321 39.1095 31.6573 38.0081 31.6573C36.9068 31.6573 36.0146 27.3333 36.0146 22C36.0146 16.6667 36.9072 12.3427 38.0081 12.3427C39.1091 12.3427 40.002 16.6663 40.002 22Z" fill="#F1F1F1"/>
</svg>
