<svg width="106" height="32" viewBox="0 0 106 32" fill="none" xmlns="http://www.w3.org/2000/svg">
<rect x="2" y="2" width="104" height="20" rx="10" fill="#9EA3B5"/>
<g filter="url(#filter0_d_36_3947)">
<rect x="2" y="2" width="51" height="20" rx="10" fill="black" shape-rendering="crispEdges"/>
<path d="M15.13 16.12C14.02 16.12 12.9 15.79 12.28 15.31L12.83 14.09C13.42 14.52 14.3 14.82 15.14 14.82C16.1 14.82 16.49 14.5 16.49 14.07C16.49 12.76 12.42 13.66 12.42 11.06C12.42 9.87 13.38 8.88 15.37 8.88C16.25 8.88 17.15 9.09 17.8 9.5L17.3 10.73C16.65 10.36 15.98 10.18 15.36 10.18C14.4 10.18 14.03 10.54 14.03 10.98C14.03 12.27 18.1 11.38 18.1 13.95C18.1 15.12 17.13 16.12 15.13 16.12ZM22.147 14.64L22.567 15.74C22.247 15.97 21.777 16.08 21.297 16.08C20.027 16.08 19.287 15.43 19.287 14.15V11.94H18.457V10.74H19.287V9.43H20.847V10.74H22.187V11.94H20.847V14.13C20.847 14.59 21.097 14.84 21.517 14.84C21.747 14.84 21.977 14.77 22.147 14.64ZM28.5466 13.33C28.5466 13.45 28.5266 13.62 28.5166 13.75H24.4466C24.5966 14.42 25.1666 14.83 25.9866 14.83C26.5566 14.83 26.9666 14.66 27.3366 14.31L28.1666 15.21C27.6666 15.78 26.9166 16.08 25.9466 16.08C24.0866 16.08 22.8766 14.91 22.8766 13.31C22.8766 11.7 24.1066 10.54 25.7466 10.54C27.3266 10.54 28.5466 11.6 28.5466 13.33ZM25.7566 11.72C25.0466 11.72 24.5366 12.15 24.4266 12.84H27.0766C26.9666 12.16 26.4566 11.72 25.7566 11.72ZM32.7652 10.54C34.2752 10.54 35.4452 11.62 35.4452 13.31C35.4452 15 34.2752 16.08 32.7652 16.08C32.0952 16.08 31.5452 15.87 31.1452 15.43V17.94H29.5852V10.62H31.0752V11.24C31.4652 10.77 32.0452 10.54 32.7652 10.54ZM32.4952 14.8C33.2752 14.8 33.8652 14.24 33.8652 13.31C33.8652 12.38 33.2752 11.82 32.4952 11.82C31.7152 11.82 31.1252 12.38 31.1252 13.31C31.1252 14.24 31.7152 14.8 32.4952 14.8ZM38.6716 9H41.6916V16H40.0716V10.3H38.6716V9Z" fill="white"/>
</g>
<defs>
<filter id="filter0_d_36_3947" x="0" y="0" width="63" height="32" filterUnits="userSpaceOnUse" color-interpolation-filters="sRGB">
<feFlood flood-opacity="0" result="BackgroundImageFix"/>
<feColorMatrix in="SourceAlpha" type="matrix" values="0 0 0 0 0 0 0 0 0 0 0 0 0 0 0 0 0 0 127 0" result="hardAlpha"/>
<feOffset dx="4" dy="4"/>
<feGaussianBlur stdDeviation="3"/>
<feComposite in2="hardAlpha" operator="out"/>
<feColorMatrix type="matrix" values="0 0 0 0 0 0 0 0 0 0 0 0 0 0 0 0 0 0 0.2 0"/>
<feBlend mode="normal" in2="BackgroundImageFix" result="effect1_dropShadow_36_3947"/>
<feBlend mode="normal" in="SourceGraphic" in2="effect1_dropShadow_36_3947" result="shape"/>
</filter>
</defs>
</svg>
