<svg width="40" height="40" viewBox="0 0 40 40" fill="none" xmlns="http://www.w3.org/2000/svg">
<g clip-path="url(#clip0_53_414)">
<path d="M20 40C31.0457 40 40 31.0457 40 20C40 8.95431 31.0457 0 20 0C8.95431 0 0 8.95431 0 20C0 31.0457 8.95431 40 20 40Z" fill="#B0B0B0"/>
<path fill-rule="evenodd" clip-rule="evenodd" d="M9.05368 19.7886C14.8841 17.2484 18.7719 15.5738 20.7172 14.7647C26.2715 12.4545 27.4256 12.0532 28.1778 12.0399C28.3433 12.037 28.7132 12.078 28.9528 12.2724C29.1551 12.4366 29.2108 12.6584 29.2374 12.8141C29.2641 12.9697 29.2973 13.3243 29.2709 13.6014C28.9699 16.7639 27.6676 24.4384 27.005 27.9804C26.7246 29.4791 26.1726 29.9817 25.6382 30.0308C24.4767 30.1377 23.5948 29.2633 22.4699 28.5259C20.7096 27.372 19.7152 26.6537 18.0066 25.5278C16.0319 24.2265 17.312 23.5113 18.4373 22.3425C18.7318 22.0366 23.8492 17.382 23.9482 16.9598C23.9606 16.907 23.9721 16.7101 23.8551 16.6062C23.7382 16.5022 23.5656 16.5378 23.441 16.5661C23.2645 16.6061 20.4525 18.4648 15.0049 22.142C14.2067 22.6901 13.4838 22.9572 12.836 22.9432C12.1219 22.9277 10.7483 22.5394 9.72709 22.2075C8.47459 21.8003 7.47913 21.5851 7.56581 20.8936C7.61096 20.5335 8.10692 20.1651 9.05368 19.7886Z" fill="white"/>
</g>
<defs>
<clipPath id="clip0_53_414">
<rect width="40" height="40" fill="white"/>
</clipPath>
</defs>
</svg>
