<svg width="41" height="34" viewBox="0 0 41 34" fill="none" xmlns="http://www.w3.org/2000/svg">
<path d="M35.9069 8.80775C35.9313 9.16178 35.9313 9.51581 35.9313 9.87311C35.9313 20.7599 27.6761 33.3158 12.5813 33.3158V33.3093C8.12221 33.3158 3.75576 32.0334 0.00195312 29.6156C0.650338 29.6939 1.30197 29.7331 1.95523 29.7347C5.65054 29.738 9.24022 28.4931 12.1474 26.2009C8.63571 26.134 5.55629 23.8353 4.48052 20.4793C5.71067 20.7175 6.97819 20.6686 8.18558 20.3374C4.35702 19.5608 1.6026 16.1837 1.6026 12.2616C1.6026 12.2257 1.6026 12.1914 1.6026 12.1572C2.74337 12.7951 4.02064 13.1491 5.32716 13.1883C1.72123 10.7688 0.609713 5.95267 2.78725 2.18722C6.95381 7.33453 13.1013 10.4637 19.7005 10.7949C19.0391 7.93328 19.9426 4.93463 22.0747 2.92302C25.38 -0.196365 30.5784 -0.0364802 33.6855 3.28031C35.5234 2.91649 37.2849 2.23943 38.8969 1.28012C38.2843 3.18732 37.0022 4.80737 35.2894 5.83683C36.916 5.64432 38.5053 5.20708 40.002 4.53981C38.9002 6.19739 37.5124 7.64125 35.9069 8.80775Z" fill="white"/>
</svg>
