<svg width="16" height="16" viewBox="0 0 16 16" fill="none" xmlns="http://www.w3.org/2000/svg">
<path fill-rule="evenodd" clip-rule="evenodd" d="M1.37273 1.98081C1.64499 1.64204 2.06996 1.36011 2.59582 1.36011H11.8403C12.2084 1.36011 12.5069 1.65858 12.5069 2.02677C12.5069 2.39496 12.2084 2.69344 11.8403 2.69344H2.59582C2.57184 2.69344 2.49963 2.70705 2.41203 2.81605C2.32481 2.92458 2.26773 3.07824 2.2676 3.22733C2.26736 3.51339 2.34931 3.79033 2.4624 3.97735C2.54101 4.10733 2.59818 4.14291 2.61483 4.15122H12.978C13.0934 4.15122 13.1862 4.14804 13.2855 4.14465C13.3567 4.14221 13.4312 4.13967 13.5198 4.13809C13.6951 4.13497 13.9168 4.13651 14.1287 4.18375C14.3535 4.23385 14.6222 4.34758 14.8202 4.60936C15.0115 4.86234 15.0669 5.16202 15.0669 5.44011V12.2668C15.0669 13.5775 14.0043 14.6401 12.6936 14.6401H3.30693C1.99617 14.6401 0.933594 13.5775 0.933594 12.2668V3.62677C0.933594 3.58152 0.938102 3.53732 0.946694 3.4946C0.938395 3.4054 0.934192 3.31574 0.934267 3.22621C0.934654 2.7664 1.10009 2.32006 1.37273 1.98081ZM2.26693 5.44135V12.2668C2.26693 12.8411 2.73255 13.3068 3.30693 13.3068H12.6936C13.268 13.3068 13.7336 12.8411 13.7336 12.2668V5.47315C13.6864 5.47066 13.6247 5.46976 13.5435 5.47121C13.4987 5.47201 13.4398 5.47388 13.3739 5.47598C13.2515 5.47988 13.1047 5.48455 12.978 5.48455H2.59582C2.47945 5.48455 2.36981 5.46907 2.26693 5.44135ZM13.7274 5.36039C13.7274 5.36038 13.7275 5.36078 13.7277 5.36161L13.7274 5.36039ZM11.4695 8.37088C11.7298 8.63122 11.7298 9.05333 11.4695 9.31369L11.4583 9.32483C11.198 9.58519 10.7759 9.5852 10.5155 9.32486C10.2552 9.06452 10.2552 8.64241 10.5155 8.38205L10.5266 8.37091C10.787 8.11055 11.2091 8.11054 11.4695 8.37088Z" fill="white"/>
</svg>
