<svg width="30" height="30" viewBox="0 0 30 30" fill="none" xmlns="http://www.w3.org/2000/svg">
<circle cx="15" cy="15" r="15" fill="white"/>
<path d="M20.288 15.6622C20.703 16.4083 20.9424 17.2663 20.9424 18.1788C20.9424 20.3814 19.5605 22.2653 17.6206 23.0114C17.044 23.2353 16.4191 23.3565 15.7662 23.3565H9.39007C9.26883 23.3565 9.1709 23.2586 9.1709 23.1358V16.1705C9.1709 16.0477 9.26883 15.9498 9.39007 15.9498H15.7662C16.7502 15.9498 17.6517 15.6 18.359 15.0202C18.6403 14.7886 18.8906 14.5197 19.1004 14.2228C19.5761 13.556 19.8543 12.7399 19.8543 11.8617C19.8543 10.2902 18.9636 8.9223 17.6595 8.23992C17.3222 8.06116 16.9569 7.92904 16.5714 7.85287C16.3118 7.80002 16.0414 7.77204 15.7662 7.77204H10.4782C10.3569 7.77204 10.259 7.86997 10.259 7.99277V12.7803C10.259 12.9031 10.3569 13.0011 10.4782 13.0011H15.7662C16.4346 13.0011 17.0719 13.1285 17.6595 13.3601C18.0155 13.5016 18.345 13.6757 18.6574 13.8871C18.6652 13.8933 18.6714 13.8979 18.6792 13.9042C18.6807 13.9042 18.6823 13.9057 18.6839 13.9073C18.7041 13.9275 18.7165 13.9555 18.7165 13.985C18.7165 14.0052 18.7103 14.0254 18.701 14.0425C18.6978 14.0456 18.6963 14.0487 18.6932 14.0518C18.5222 14.2943 18.3248 14.5213 18.1041 14.7202C18.0994 14.7264 18.0932 14.7311 18.087 14.7358C18.0683 14.7482 18.0481 14.7544 18.0248 14.7544C18.0046 14.7544 17.9859 14.7482 17.9688 14.7389C17.9657 14.7373 17.9626 14.7358 17.9595 14.7327C17.3253 14.3254 16.5745 14.0891 15.7662 14.0891H9.71494C9.41494 14.0891 9.1709 13.8467 9.1709 13.5451V6.90469C9.1709 6.78189 9.26883 6.68396 9.39007 6.68396H15.7662C16.4191 6.68396 17.044 6.8052 17.6206 7.02904C19.5605 7.77515 20.9424 9.65909 20.9424 11.8617C20.9424 13.0508 20.5398 14.1467 19.8652 15.0202C19.6383 15.3125 19.3818 15.5798 19.1004 15.8176C18.673 16.1783 18.1864 16.472 17.6595 16.6803C17.0719 16.9104 16.4346 17.0378 15.7662 17.0378H10.4782C10.3569 17.0378 10.259 17.1358 10.259 17.2586V22.0477C10.259 22.1705 10.3569 22.2684 10.4782 22.2684H15.7662C16.0414 22.2684 16.3118 22.2404 16.5714 22.1876C16.9569 22.1114 17.3222 21.9793 17.6595 21.8005C18.9636 21.1182 19.8543 19.7503 19.8543 18.1788C19.8543 17.4995 19.6864 16.8575 19.3911 16.2933C19.3398 16.1938 19.3662 16.0741 19.4579 16.0073C19.6274 15.8829 19.7906 15.7492 19.9445 15.6062C20.0502 15.5083 20.218 15.5378 20.288 15.6622Z" fill="url(#paint0_linear_1_1547)"/>
<defs>
<linearGradient id="paint0_linear_1_1547" x1="22.3833" y1="9.63733" x2="9.1709" y2="21.6062" gradientUnits="userSpaceOnUse">
<stop stop-color="#45CEFA"/>
<stop offset="1" stop-color="#8945FA"/>
</linearGradient>
</defs>
</svg>
