<svg width="31" height="31" viewBox="0 0 31 31" fill="none" xmlns="http://www.w3.org/2000/svg">
<circle cx="15.5" cy="15.5" r="15" fill="white"/>
<path d="M24.0488 12.6313C23.2062 10.4001 21.065 8.90002 18.7195 8.90002C17.4463 8.90002 16.2423 9.31805 15.2359 10.1111C14.9151 10.3657 14.6196 10.6547 14.3562 10.9695C13.9526 11.4564 13.6317 12.0017 13.4055 12.5883C13.1437 13.2678 13.012 13.9834 13.012 14.7145V20.5669C13.012 20.6547 12.9445 20.7235 12.8567 20.7235H8.22646C8.14034 20.7235 8.07111 20.6529 8.07111 20.5652V11.1003C8.07111 10.9179 7.92589 10.77 7.7469 10.77H7.04443C6.86544 10.77 6.72021 10.9179 6.72021 11.1003V21.7711C6.72021 21.9517 6.86544 22.0997 7.04274 22.0997H14.0387C14.2177 22.0997 14.3629 21.9517 14.3629 21.7711V14.7145C14.3629 13.6927 14.7141 12.6932 15.3541 11.9002C15.6024 11.594 15.8877 11.3222 16.2035 11.0951C16.9397 10.5601 17.8111 10.2762 18.7195 10.2762C20.3457 10.2762 21.8249 11.1897 22.5797 12.6588C22.7739 13.0321 22.9124 13.4278 22.9917 13.8406C23.0492 14.1262 23.0779 14.4204 23.0779 14.7145V20.5669C23.0779 20.6529 23.0086 20.7235 22.9242 20.7235H16.141C16.0532 20.7235 15.9722 20.7579 15.9097 20.8215C15.8489 20.8852 15.8151 20.9677 15.8151 21.0572L15.8219 21.7728C15.8236 21.9535 15.9688 22.0997 16.1461 22.0997H24.1029C24.2819 22.0997 24.4271 21.9517 24.4271 21.7694V14.7145C24.4271 13.9955 24.2987 13.2936 24.0471 12.6313H24.0488Z" fill="url(#paint0_linear_1_1533)"/>
<path d="M7.04049 8.90002H9.94131C10.1181 8.90002 10.2616 9.04237 10.2616 9.21783V9.86999C10.2616 10.0454 10.1181 10.1878 9.94131 10.1878H7.04049C6.86367 10.1878 6.72021 10.0454 6.72021 9.86999V9.21783C6.72021 9.04237 6.86367 8.90002 7.04049 8.90002Z" fill="url(#paint1_linear_1_1533)"/>
<defs>
<linearGradient id="paint0_linear_1_1533" x1="26.5945" y1="11.2382" x2="17.4628" y2="26.9555" gradientUnits="userSpaceOnUse">
<stop stop-color="#45CEFA"/>
<stop offset="1" stop-color="#8945FA"/>
</linearGradient>
<linearGradient id="paint1_linear_1_1533" x1="10.6951" y1="9.12814" x2="10.157" y2="11.0267" gradientUnits="userSpaceOnUse">
<stop stop-color="#45CEFA"/>
<stop offset="1" stop-color="#8945FA"/>
</linearGradient>
</defs>
</svg>
